<svg width="1920" height="1082" viewBox="0 0 1920 1082" fill="none" xmlns="http://www.w3.org/2000/svg">
<rect y="1.06006" width="1920" height="1080" fill="url(#paint0_linear)"/>
<path fill-rule="evenodd" clip-rule="evenodd" d="M907.013 141.06C890.444 141.06 877.013 154.492 877.013 171.06V265.205C877.013 269.626 874.104 273.504 869.904 274.883C856.316 279.343 843.188 284.822 830.609 291.229C826.655 293.243 821.834 292.556 818.702 289.413L752.623 223.109C740.927 211.374 721.964 211.374 710.269 223.109L639.87 293.748C628.174 305.483 628.174 324.511 639.87 336.246L705.983 402.585C709.099 405.711 709.78 410.503 707.786 414.442C701.388 427.083 695.918 440.277 691.466 453.933C690.093 458.142 686.211 461.06 681.783 461.06H588.099C571.531 461.06 558.099 474.492 558.099 491.06V591.06C558.099 607.629 571.531 621.06 588.099 621.06H681.783C686.211 621.06 690.093 623.978 691.466 628.187C695.95 641.941 701.466 655.225 707.923 667.948C709.923 671.888 709.244 676.686 706.125 679.815L639.87 746.296C628.174 758.032 628.174 777.059 639.87 788.795L710.269 859.433C721.964 871.169 740.927 871.169 752.623 859.433L818.981 792.849C822.111 789.709 826.926 789.021 830.878 791.028C843.376 797.377 856.413 802.809 869.904 807.237C874.104 808.616 877.013 812.494 877.013 816.915V911.06C877.013 927.629 890.444 941.06 907.013 941.06H1006.47C1023.04 941.06 1036.47 927.629 1036.47 911.06V816.915C1036.47 812.494 1039.38 808.616 1043.58 807.237C1057.17 802.777 1070.29 797.298 1082.87 790.891C1086.83 788.878 1091.65 789.564 1094.78 792.707L1161.28 859.433C1172.98 871.169 1191.94 871.169 1203.64 859.433L1274.03 788.795C1285.73 777.059 1285.73 758.032 1274.03 746.296L1207.5 679.535C1204.38 676.408 1203.7 671.617 1205.7 667.678C1212.09 655.037 1217.56 641.843 1222.02 628.187C1223.39 623.978 1227.27 621.06 1231.7 621.06H1325.38C1341.95 621.06 1355.38 607.629 1355.38 591.06V491.06C1355.38 474.492 1341.95 461.06 1325.38 461.06H1231.7C1227.27 461.06 1223.39 458.142 1222.02 453.933C1217.6 440.374 1212.17 427.271 1205.83 414.712C1203.85 410.775 1204.53 405.989 1207.64 402.865L1274.03 336.246C1285.73 324.511 1285.73 305.483 1274.03 293.748L1203.64 223.109C1191.94 211.374 1172.98 211.374 1161.28 223.109L1095.06 289.556C1091.92 292.702 1087.1 293.386 1083.14 291.366C1070.48 284.9 1057.26 279.375 1043.58 274.883C1039.38 273.504 1036.47 269.626 1036.47 265.205V171.06C1036.47 154.492 1023.04 141.06 1006.47 141.06H907.013ZM956.741 701.06C1044.81 701.06 1116.2 629.426 1116.2 541.06C1116.2 452.694 1044.81 381.06 956.741 381.06C868.676 381.06 797.284 452.694 797.284 541.06C797.284 629.426 868.676 701.06 956.741 701.06Z" fill="url(#paint1_linear)"/>
<path fill-rule="evenodd" clip-rule="evenodd" d="M1448.96 999.315C1464.67 1004.59 1481.65 996.122 1486.89 980.404L1501.06 937.914C1502.46 933.718 1506.45 930.975 1510.87 930.937C1517.95 930.876 1524.99 930.382 1531.94 929.472C1536.32 928.897 1540.66 931.064 1542.64 935.029L1562.56 974.995C1569.96 989.838 1587.97 995.883 1602.78 988.498L1638.54 970.669C1653.36 963.283 1659.36 945.264 1651.96 930.421L1632.04 890.455C1630.06 886.49 1630.94 881.72 1634.04 878.564C1638.95 873.563 1643.58 868.242 1647.89 862.621C1650.58 859.113 1655.17 857.577 1659.37 858.986L1701.83 873.241C1717.53 878.514 1734.51 870.048 1739.76 854.33L1752.41 816.384C1757.65 800.666 1749.17 783.65 1733.46 778.376L1691 764.121C1686.81 762.713 1684.06 758.713 1684.01 754.287C1683.94 747.131 1683.43 740.026 1682.49 733.007C1681.91 728.612 1684.06 724.265 1688.02 722.291L1728.02 702.35C1742.83 694.965 1748.84 676.946 1741.44 662.103L1723.57 626.269C1716.17 611.426 1698.16 605.38 1683.35 612.765L1643.24 632.763C1639.29 634.734 1634.53 633.848 1631.37 630.747C1626.41 625.872 1621.13 621.273 1615.56 616.986C1612.05 614.286 1610.51 609.686 1611.91 605.489L1626.08 562.999C1631.32 547.281 1622.83 530.265 1607.13 524.991L1569.21 512.26C1553.5 506.987 1536.52 515.454 1531.28 531.172L1517.11 573.661C1515.71 577.858 1511.72 580.601 1507.3 580.639C1500.21 580.699 1493.18 581.194 1486.23 582.104C1481.85 582.679 1477.51 580.512 1475.53 576.547L1455.44 536.247C1448.04 521.404 1430.03 515.358 1415.22 522.744L1379.46 540.573C1364.64 547.959 1358.63 565.978 1366.04 580.821L1386.13 621.121C1388.1 625.086 1387.22 629.856 1384.13 633.012C1379.22 638.013 1374.59 643.333 1370.28 648.954C1367.59 652.463 1363 653.998 1358.8 652.59L1316.34 638.335C1300.63 633.061 1283.65 641.528 1278.41 657.246L1265.76 695.192C1260.52 710.91 1269 727.926 1284.71 733.2L1327.17 747.455C1331.36 748.863 1334.11 752.863 1334.15 757.289C1334.22 764.319 1334.72 771.301 1335.63 778.2C1336.2 782.588 1334.04 786.923 1330.09 788.894L1289.98 808.891C1275.17 816.276 1269.16 834.296 1276.56 849.139L1294.43 884.973C1301.83 899.816 1319.84 905.861 1334.65 898.476L1374.64 878.536C1378.6 876.561 1383.37 877.455 1386.53 880.568C1391.57 885.54 1396.94 890.226 1402.61 894.59C1406.12 897.29 1407.66 901.89 1406.26 906.087L1392.09 948.576C1386.85 964.294 1395.33 981.311 1411.04 986.584L1448.96 999.315ZM1540.72 660.922C1488.36 643.344 1431.75 671.567 1414.28 723.96C1396.81 776.352 1425.09 833.074 1477.45 850.652C1529.81 868.23 1586.41 840.007 1603.88 787.615C1621.35 735.222 1593.07 678.5 1540.72 660.922Z" fill="url(#paint2_linear)"/>
<path fill-rule="evenodd" clip-rule="evenodd" d="M530.513 540.803C545.52 533.781 552.025 515.909 545.042 500.884L526.801 461.635C524.938 457.625 525.947 452.882 529.121 449.798C534.029 445.028 538.619 439.991 542.88 434.722C545.67 431.271 550.312 429.844 554.471 431.363L594.806 446.095C610.349 451.772 627.535 443.731 633.191 428.135L646.182 392.32C651.839 376.724 643.824 359.479 628.281 353.802L587.917 339.06C583.772 337.546 581.145 333.485 581.218 329.062C581.332 322.263 581.042 315.428 580.336 308.593C579.88 304.186 582.156 299.897 586.165 298.021L625.196 279.76C640.203 272.739 646.708 254.866 639.725 239.841L623.642 205.237C616.659 190.211 598.833 183.723 583.826 190.745L544.795 209.006C540.786 210.882 536.049 209.874 532.977 206.691C528.17 201.711 523.091 197.057 517.775 192.741C514.346 189.956 512.93 185.322 514.439 181.159L529.17 140.545C534.827 124.95 526.813 107.705 511.27 102.028L475.575 88.991C460.032 83.3142 442.846 91.3549 437.189 106.951L422.426 147.653C420.914 151.822 416.846 154.472 412.422 154.403C405.72 154.299 398.985 154.591 392.25 155.291C387.855 155.748 383.584 153.475 381.721 149.465L363.48 110.217C356.497 95.1916 338.671 88.7032 323.663 95.7247L289.298 111.803C274.291 118.825 267.786 136.697 274.769 151.722L293.01 190.971C294.873 194.981 293.864 199.724 290.69 202.808C285.782 207.578 281.192 212.615 276.931 217.884C274.141 221.335 269.499 222.762 265.34 221.243L224.662 206.386C209.119 200.709 191.933 208.75 186.276 224.346L173.286 260.161C167.629 275.757 175.644 293.002 191.187 298.679L231.895 313.547C236.039 315.061 238.667 319.122 238.593 323.544C238.48 330.343 238.77 337.178 239.476 344.012C239.931 348.419 237.656 352.708 233.646 354.584L194.616 372.845C179.609 379.866 173.104 397.739 180.087 412.764L196.169 447.368C203.152 462.394 220.979 468.882 235.986 461.86L275.016 443.599C279.026 441.724 283.763 442.731 286.834 445.914C291.556 450.806 296.541 455.384 301.753 459.635C305.171 462.422 306.579 467.047 305.072 471.202L290.298 511.935C284.641 527.531 292.655 544.776 308.198 550.453L343.893 563.49C359.436 569.167 376.622 561.126 382.279 545.53L396.999 504.946C398.514 500.769 402.593 498.118 407.026 498.196C413.847 498.317 420.704 498.027 427.561 497.314C431.956 496.858 436.226 499.13 438.09 503.14L456.331 542.389C463.314 557.414 481.14 563.903 496.148 556.881L530.513 540.803ZM368.536 237.286C319.542 260.209 298.347 318.646 321.195 367.808C344.043 416.969 402.282 438.24 451.276 415.318C500.27 392.395 521.465 333.959 498.617 284.797C475.769 235.635 417.53 214.364 368.536 237.286Z" fill="url(#paint3_linear)"/>
<defs>
<linearGradient id="paint0_linear" x1="1920" y1="1081.06" x2="1.16229e-05" y2="1.06004" gradientUnits="userSpaceOnUse">
<stop stop-color="#2AA9FF"/>
<stop offset="1" stop-color="#3FFFEC"/>
</linearGradient>
<linearGradient id="paint1_linear" x1="1355.38" y1="941.06" x2="555.388" y2="143.78" gradientUnits="userSpaceOnUse">
<stop stop-color="#3EFDEC"/>
<stop offset="1" stop-color="#2AAAFE"/>
</linearGradient>
<linearGradient id="paint2_linear" x1="1351.17" y1="439.057" x2="1667" y2="1072.52" gradientUnits="userSpaceOnUse">
<stop stop-color="#3EFDEC"/>
<stop offset="1" stop-color="#2AAAFE"/>
</linearGradient>
<linearGradient id="paint3_linear" x1="84.7037" y1="207.527" x2="735.635" y2="443.626" gradientUnits="userSpaceOnUse">
<stop stop-color="#3EFDEC"/>
<stop offset="1" stop-color="#2AAAFE"/>
</linearGradient>
</defs>
</svg>
