<svg width="1920" height="1080" viewBox="0 0 1920 1080" fill="none" xmlns="http://www.w3.org/2000/svg">
<rect width="1920" height="1080" fill="url(#paint0_linear)"/>
<path fill-rule="evenodd" clip-rule="evenodd" d="M1392.57 588.144C1394.22 585.562 1397.08 584 1400.14 584H1416.29C1423.39 584 1427.69 591.829 1423.89 597.822L1354.08 707.864C1350.27 713.856 1354.58 721.685 1361.68 721.685H1396.03C1401 721.685 1405.03 717.656 1405.03 712.685V685.858C1405.03 680.888 1409.06 676.858 1414.03 676.858H1429.9C1434.87 676.858 1438.9 680.888 1438.9 685.858V712.685C1438.9 717.656 1442.93 721.685 1447.9 721.685H1462.88C1467.85 721.685 1471.88 725.715 1471.88 730.685V748.975C1471.88 753.945 1467.85 757.975 1462.88 757.975H1447.9C1442.93 757.975 1438.9 762.004 1438.9 766.975V799.141C1438.9 804.111 1434.87 808.141 1429.9 808.141H1414.03C1409.06 808.141 1405.03 804.111 1405.03 799.141V766.975C1405.03 762.004 1401 757.975 1396.03 757.975H1311.52C1306.55 757.975 1302.52 753.945 1302.52 748.975V731.032C1302.52 729.24 1303.06 727.489 1304.06 726.003L1306.96 721.69C1306.96 721.687 1306.97 721.685 1306.97 721.685V721.685C1306.98 721.685 1306.98 721.683 1306.98 721.68L1392.57 588.144Z" fill="url(#paint1_linear)"/>
<path fill-rule="evenodd" clip-rule="evenodd" d="M1793.69 589.211C1795.34 586.629 1798.2 585.067 1801.27 585.067H1817.41C1824.51 585.067 1828.82 592.897 1825.01 598.889L1755.2 708.932C1751.39 714.924 1755.7 722.754 1762.8 722.754L1797.15 722.754C1802.12 722.754 1806.15 718.724 1806.15 713.754V686.926C1806.15 681.955 1810.18 677.926 1815.15 677.926H1831.02C1835.99 677.926 1840.02 681.955 1840.02 686.926V713.754C1840.02 718.724 1844.05 722.754 1849.02 722.754L1864 722.754C1868.97 722.754 1873 726.783 1873 731.754V750.043C1873 755.014 1868.97 759.043 1864 759.043H1849.02C1844.05 759.043 1840.02 763.072 1840.02 768.043V800.208C1840.02 805.179 1835.99 809.208 1831.02 809.208H1815.15C1810.18 809.208 1806.15 805.179 1806.15 800.208V768.043C1806.15 763.072 1802.12 759.043 1797.15 759.043H1712.64C1707.67 759.043 1703.64 755.014 1703.64 750.043V732.101C1703.64 730.309 1704.18 728.558 1705.18 727.072L1708.08 722.758C1708.09 722.755 1708.09 722.754 1708.09 722.754V722.754C1708.1 722.754 1708.1 722.752 1708.1 722.749L1793.69 589.211Z" fill="url(#paint2_linear)"/>
<path fill-rule="evenodd" clip-rule="evenodd" d="M1663.53 697.138C1663.53 781.564 1629.61 809.208 1587.76 809.208C1545.92 809.208 1511.99 780.817 1511.99 697.138C1511.99 613.458 1545.92 585.067 1587.76 585.067C1629.61 585.067 1663.53 612.711 1663.53 697.138ZM1629.48 697.138C1629.48 755.767 1610.8 774.965 1587.76 774.965C1579.01 774.965 1570.88 772.116 1564.17 765.393C1561.29 762.513 1561.57 757.931 1564.18 754.808L1616.12 692.606C1620.75 687.069 1629.48 689.924 1629.48 697.138V697.138ZM1613.36 641.572C1615.83 638.614 1616.23 634.336 1613.76 631.373C1606.63 622.808 1597.59 619.312 1587.76 619.312C1564.72 619.312 1546.05 639.028 1546.05 697.138C1546.05 698.002 1546.05 698.857 1546.06 699.704C1546.14 707.627 1555.68 710.639 1560.76 704.558L1613.36 641.572Z" fill="url(#paint3_linear)"/>
<path fill-rule="evenodd" clip-rule="evenodd" d="M1181.21 339.364C1182.84 336.656 1185.77 335 1188.93 335H1200.9C1207.88 335 1212.2 342.602 1208.64 348.602L1148.07 450.398C1144.5 456.398 1148.83 464 1155.81 464L1183.45 464C1188.42 464 1192.45 459.971 1192.45 455V431C1192.45 426.029 1196.48 422 1201.45 422H1213.21C1218.18 422 1222.21 426.029 1222.21 431V455C1222.21 459.971 1226.24 464 1231.21 464L1242.18 464C1247.15 464 1251.18 468.029 1251.18 473V489C1251.18 493.971 1247.15 498 1242.18 498H1231.21C1226.24 498 1222.21 502.029 1222.21 507V536C1222.21 540.971 1218.18 545 1213.21 545H1201.45C1196.48 545 1192.45 540.971 1192.45 536V507C1192.45 502.029 1188.42 498 1183.45 498H1111.39C1106.42 498 1102.39 493.971 1102.39 489V472.688C1102.39 471.051 1102.86 469.447 1103.73 468.063L1106.29 464.004C1106.3 464.002 1106.3 464 1106.3 464V464C1106.31 464 1106.31 463.998 1106.31 463.995L1181.21 339.364Z" fill="url(#paint4_linear)"/>
<path fill-rule="evenodd" clip-rule="evenodd" d="M1533.62 340.364C1535.24 337.656 1538.17 336 1541.33 336H1553.3C1560.28 336 1564.61 343.602 1561.04 349.602L1500.48 451.398C1496.91 457.397 1501.23 465 1508.21 465H1535.85C1540.82 465 1544.85 460.97 1544.85 456V432C1544.85 427.029 1548.88 423 1553.85 423H1565.61C1570.58 423 1574.61 427.029 1574.61 432V456C1574.61 460.97 1578.64 465 1583.61 465H1594.59C1599.56 465 1603.59 469.029 1603.59 474V490C1603.59 494.97 1599.56 499 1594.59 499H1583.61C1578.64 499 1574.61 503.029 1574.61 508V537C1574.61 541.971 1570.58 546 1565.61 546H1553.85C1548.88 546 1544.85 541.971 1544.85 537V508C1544.85 503.029 1540.82 499 1535.85 499H1463.79C1458.82 499 1454.79 494.97 1454.79 490V473.699C1454.79 472.054 1455.26 470.443 1456.14 469.053L1458.7 465.004C1458.7 465.001 1458.7 465 1458.71 465V465C1458.71 465 1458.71 464.998 1458.71 464.995L1533.62 340.364Z" fill="url(#paint5_linear)"/>
<path fill-rule="evenodd" clip-rule="evenodd" d="M1419.55 441C1419.55 520.1 1389.75 546 1352.99 546C1316.23 546 1286.42 519.4 1286.42 441C1286.42 362.6 1316.23 336 1352.99 336C1389.75 336 1419.55 361.9 1419.55 441ZM1389.64 441.001C1389.64 495.931 1373.23 513.917 1352.99 513.917C1345.35 513.917 1338.25 511.283 1332.38 505.073C1329.72 502.265 1329.99 497.942 1332.37 494.899L1377.62 437.115C1381.65 431.969 1389.64 434.465 1389.64 441.001V441.001ZM1375.38 389.067C1377.64 386.187 1378.01 382.155 1375.75 379.279C1369.5 371.331 1361.59 368.084 1352.99 368.084C1332.75 368.084 1316.34 386.556 1316.34 441.001V441.001C1316.34 449.053 1326.09 452.013 1331.05 445.673L1375.38 389.067Z" fill="url(#paint6_linear)"/>
<path fill-rule="evenodd" clip-rule="evenodd" d="M331.402 707.144C333.057 704.562 335.913 703 338.979 703H352.765C359.862 703 364.167 710.829 360.365 716.822L296.059 818.178C292.257 824.171 296.562 832 303.658 832H334.245C339.215 832 343.245 827.971 343.245 823V799.001C343.245 794.03 347.274 790.001 352.245 790.001H365.98C370.951 790.001 374.98 794.03 374.98 799.001V823C374.98 827.971 379.01 832 383.98 832H396.881C401.851 832 405.881 836.029 405.881 841V857C405.881 861.971 401.851 866 396.881 866H383.98C379.01 866 374.98 870.029 374.98 875V904.001C374.98 908.972 370.951 913.001 365.98 913.001H352.245C347.274 913.001 343.245 908.972 343.245 904.001V875C343.245 870.029 339.215 866 334.245 866H256.203C251.233 866 247.203 861.971 247.203 857V840.897C247.203 839.127 247.731 837.398 248.72 835.93L251.365 832.004C251.367 832.002 251.37 832 251.373 832V832C251.377 832 251.38 831.998 251.382 831.995L331.402 707.144Z" fill="url(#paint7_linear)"/>
<path fill-rule="evenodd" clip-rule="evenodd" d="M510.199 854.144C511.854 851.562 514.71 850 517.777 850H531.562C538.659 850 542.964 857.829 539.162 863.822L474.856 965.178C471.054 971.17 475.359 979 482.456 979H513.042C518.012 979 522.042 974.97 522.042 970V946C522.042 941.029 526.071 937 531.042 937H544.777C549.748 937 553.777 941.029 553.777 946V970C553.777 974.97 557.807 979 562.777 979H575.678C580.648 979 584.678 983.029 584.678 988V1004C584.678 1008.97 580.648 1013 575.678 1013H562.777C557.807 1013 553.777 1017.03 553.777 1022V1051C553.777 1055.97 549.748 1060 544.777 1060H531.042C526.071 1060 522.042 1055.97 522.042 1051V1022C522.042 1017.03 518.012 1013 513.042 1013H435C430.029 1013 426 1008.97 426 1004V987.9C426 986.128 426.529 984.396 427.519 982.927L430.162 979.004C430.164 979.001 430.167 979 430.17 979V979C430.174 979 430.177 978.998 430.179 978.995L510.199 854.144Z" fill="url(#paint8_linear)"/>
<path fill-rule="evenodd" clip-rule="evenodd" d="M585.437 809C585.437 888.1 553.655 914 514.45 914C475.244 914 443.462 887.4 443.462 809C443.462 730.6 475.244 704 514.45 704C553.655 704 585.437 729.9 585.437 809ZM553.533 809.001C553.533 863.931 536.035 881.917 514.45 881.917C506.38 881.917 498.881 879.335 492.655 873.256C489.742 870.414 490.022 865.822 492.631 862.698L541.022 804.754C545.355 799.566 553.533 802.242 553.533 809.001V809.001ZM538.175 757.252C540.646 754.294 541.045 750.007 538.546 747.072C531.907 739.274 523.541 736.084 514.45 736.084C492.865 736.084 475.367 754.556 475.367 809.001C475.367 809.36 475.368 809.719 475.369 810.075C475.403 817.998 484.925 821.013 490.004 814.932L538.175 757.252Z" fill="url(#paint9_linear)"/>
<path fill-rule="evenodd" clip-rule="evenodd" d="M919.305 22.8715C920.986 20.4466 923.75 19 926.7 19H939.967C947.21 19 951.486 27.1213 947.387 33.0933L884.901 124.125C880.802 130.097 885.077 138.218 892.321 138.218H922.175C927.146 138.218 931.175 134.189 931.175 129.218V108.403C931.175 103.432 935.204 99.4028 940.175 99.4028H953.906C958.877 99.4028 962.906 103.432 962.906 108.403V129.218C962.906 134.189 966.936 138.218 971.906 138.218H984.803C989.774 138.218 993.803 142.247 993.803 147.218V160.64C993.803 165.61 989.774 169.64 984.803 169.64H971.906C966.936 169.64 962.906 173.669 962.906 178.64V204.076C962.906 209.046 958.877 213.076 953.906 213.076H940.175C935.204 213.076 931.175 209.046 931.175 204.076V178.64C931.175 173.669 927.146 169.64 922.175 169.64H844.146C839.175 169.64 835.146 165.61 835.146 160.64V146.691C835.146 144.898 835.715 143.15 836.772 141.7L839.307 138.222C839.309 138.22 839.312 138.218 839.315 138.218V138.218C839.319 138.218 839.322 138.216 839.324 138.214L919.305 22.8715Z" fill="url(#paint10_linear)"/>
<path fill-rule="evenodd" clip-rule="evenodd" d="M1295.07 23.7959C1296.75 21.3709 1299.52 19.9243 1302.47 19.9243H1315.73C1322.98 19.9243 1327.25 28.0456 1323.15 34.0177L1260.67 125.049C1256.57 131.021 1260.85 139.142 1268.09 139.142H1297.94C1302.91 139.142 1306.94 135.113 1306.94 130.142V109.327C1306.94 104.357 1310.97 100.327 1315.94 100.327H1329.67C1334.64 100.327 1338.67 104.357 1338.67 109.327V130.142C1338.67 135.113 1342.7 139.142 1347.67 139.142H1360.57C1365.54 139.142 1369.57 143.172 1369.57 148.142V161.564C1369.57 166.535 1365.54 170.564 1360.57 170.564H1347.67C1342.7 170.564 1338.67 174.593 1338.67 179.564V205C1338.67 209.971 1334.64 214 1329.67 214H1315.94C1310.97 214 1306.94 209.971 1306.94 205V179.564C1306.94 174.593 1302.91 170.564 1297.94 170.564H1219.91C1214.94 170.564 1210.91 166.535 1210.91 161.564V147.616C1210.91 145.822 1211.48 144.074 1212.54 142.625L1215.07 139.147C1215.08 139.144 1215.08 139.142 1215.08 139.142V139.142C1215.09 139.142 1215.09 139.14 1215.09 139.138L1295.07 23.7959Z" fill="url(#paint11_linear)"/>
<path fill-rule="evenodd" clip-rule="evenodd" d="M1173.34 116.962C1173.34 190.064 1141.56 214 1102.36 214C1063.16 214 1031.38 189.417 1031.38 116.962C1031.38 44.5073 1063.16 19.9243 1102.36 19.9243C1141.56 19.9243 1173.34 43.8603 1173.34 116.962ZM1141.44 116.962C1141.44 167.727 1123.94 184.35 1102.36 184.35C1094.57 184.35 1087.31 182.125 1081.21 176.915C1077.93 174.104 1078.22 169.156 1081.12 165.945L1129.32 112.607C1133.67 107.788 1141.44 110.468 1141.44 116.962V116.962ZM1125.54 69.7361C1128.29 66.6916 1128.73 62.0692 1125.88 59.1202C1119.33 52.3567 1111.19 49.5747 1102.36 49.5747C1080.78 49.5747 1063.28 66.6462 1063.28 116.962C1063.28 117.206 1063.28 117.449 1063.28 117.691C1063.31 125.408 1072.47 128.467 1077.65 122.741L1125.54 69.7361Z" fill="url(#paint12_linear)"/>
<path fill-rule="evenodd" clip-rule="evenodd" d="M442.054 87.6161C443.498 85.3628 445.99 84 448.667 84V84C454.859 84 458.616 90.8328 455.299 96.0621L428.367 138.51C424.566 144.502 428.871 152.332 435.967 152.332H440.238C445.209 152.332 449.238 148.302 449.238 143.332V138.49C449.238 133.848 453.001 130.084 457.643 130.084V130.084C462.285 130.084 466.049 133.848 466.049 138.49V144.148C466.049 148.668 469.713 152.332 474.233 152.332V152.332C478.753 152.332 482.417 155.996 482.417 160.516V162.158C482.417 166.678 478.753 170.342 474.233 170.342V170.342C469.713 170.342 466.049 174.006 466.049 178.526V186.833C466.049 191.475 462.285 195.238 457.643 195.238V195.238C453.001 195.238 449.238 191.475 449.238 186.833V179.342C449.238 174.371 445.209 170.342 440.238 170.342H407.365C402.394 170.342 398.365 166.312 398.365 161.342V157.046C398.365 156.108 398.645 155.191 399.169 154.412L400.569 152.334C400.57 152.333 400.572 152.332 400.573 152.332V152.332C400.575 152.332 400.577 152.331 400.578 152.329L442.054 87.6161Z" fill="url(#paint13_linear)"/>
<path fill-rule="evenodd" clip-rule="evenodd" d="M641.125 88.1459C642.569 85.8926 645.061 84.5298 647.738 84.5298V84.5298C653.931 84.5298 657.688 91.3626 654.37 96.5919L627.439 139.04C623.637 145.032 627.942 152.862 635.038 152.862H639.309C644.28 152.862 648.309 148.832 648.309 143.862V139.019C648.309 134.377 652.072 130.614 656.714 130.614V130.614C661.356 130.614 665.119 134.377 665.119 139.019V144.677C665.119 149.197 668.784 152.862 673.304 152.862V152.862C677.824 152.862 681.488 156.526 681.488 161.046V162.687C681.488 167.207 677.824 170.871 673.304 170.871V170.871C668.784 170.871 665.119 174.536 665.119 179.056V187.362C665.119 192.004 661.356 195.767 656.714 195.767V195.767C652.072 195.767 648.309 192.004 648.309 187.362V179.871C648.309 174.901 644.28 170.871 639.309 170.871H606.436C601.465 170.871 597.436 166.842 597.436 161.871V157.576C597.436 156.637 597.716 155.72 598.24 154.942L599.64 152.864C599.641 152.862 599.643 152.862 599.644 152.862V152.862C599.646 152.862 599.648 152.861 599.649 152.859L641.125 88.1459Z" fill="url(#paint14_linear)"/>
<path fill-rule="evenodd" clip-rule="evenodd" d="M577.528 140.149C577.528 182.048 560.693 195.768 539.926 195.768C519.159 195.768 502.324 181.677 502.324 140.149C502.324 98.6199 519.159 84.5298 539.926 84.5298C560.693 84.5298 577.528 98.2491 577.528 140.149ZM560.628 140.149C560.628 169.246 551.359 178.773 539.926 178.773C536.692 178.773 533.631 177.991 530.904 176.215C527.494 173.995 527.839 169.227 530.448 166.103L554.001 137.9C556.296 135.152 560.628 136.569 560.628 140.149V140.149ZM550.549 115.065C553.02 112.107 553.503 107.679 550.542 105.21C547.438 102.622 543.807 101.525 539.926 101.525C528.492 101.525 519.223 111.31 519.223 140.149V140.149C519.223 144.56 524.514 146.24 527.341 142.854L550.549 115.065Z" fill="url(#paint15_linear)"/>
<path fill-rule="evenodd" clip-rule="evenodd" d="M148.111 256.616C149.555 254.363 152.047 253 154.723 253V253C160.916 253 164.673 259.833 161.356 265.062L134.424 307.51C130.623 313.502 134.927 321.332 142.024 321.332H146.295C151.266 321.332 155.295 317.302 155.295 312.332V307.489C155.295 302.847 159.058 299.084 163.7 299.084V299.084C168.342 299.084 172.105 302.847 172.105 307.489V313.148C172.105 317.668 175.77 321.332 180.29 321.332V321.332C184.809 321.332 188.474 324.996 188.474 329.516V331.158C188.474 335.678 184.809 339.342 180.29 339.342V339.342C175.77 339.342 172.105 343.006 172.105 347.526V355.832C172.105 360.474 168.342 364.238 163.7 364.238V364.238C159.058 364.238 155.295 360.474 155.295 355.832V348.342C155.295 343.371 151.266 339.342 146.295 339.342H113.421C108.451 339.342 104.421 335.312 104.421 330.342V326.046C104.421 325.108 104.702 324.191 105.226 323.412L106.626 321.334C106.627 321.333 106.628 321.332 106.63 321.332V321.332C106.632 321.332 106.634 321.331 106.634 321.329L148.111 256.616Z" fill="url(#paint16_linear)"/>
<path fill-rule="evenodd" clip-rule="evenodd" d="M347.182 257.146C348.626 254.893 351.118 253.53 353.795 253.53V253.53C359.988 253.53 363.744 260.363 360.427 265.592L333.495 308.04C329.694 314.032 333.999 321.862 341.095 321.862H345.366C350.337 321.862 354.366 317.832 354.366 312.862V308.019C354.366 303.377 358.129 299.614 362.771 299.614V299.614C367.413 299.614 371.176 303.377 371.176 308.019V313.677C371.176 318.197 374.841 321.862 379.361 321.862V321.862C383.88 321.862 387.545 325.526 387.545 330.046V331.687C387.545 336.207 383.88 339.871 379.361 339.871V339.871C374.841 339.871 371.176 343.536 371.176 348.056V356.363C371.176 361.005 367.413 364.768 362.771 364.768V364.768C358.129 364.768 354.366 361.005 354.366 356.363V348.871C354.366 343.901 350.337 339.871 345.366 339.871H312.492C307.522 339.871 303.492 335.842 303.492 330.871V326.576C303.492 325.637 303.773 324.72 304.297 323.942L305.697 321.864C305.698 321.862 305.7 321.862 305.701 321.862V321.862C305.703 321.862 305.705 321.861 305.706 321.859L347.182 257.146Z" fill="url(#paint17_linear)"/>
<path fill-rule="evenodd" clip-rule="evenodd" d="M283.585 309.149C283.585 351.048 266.75 364.768 245.983 364.768C225.216 364.768 208.381 350.677 208.381 309.149C208.381 267.62 225.216 253.53 245.983 253.53C266.75 253.53 283.585 267.249 283.585 309.149ZM266.685 309.149C266.685 338.246 257.416 347.773 245.983 347.773C242.749 347.773 239.689 346.99 236.962 345.215C233.551 342.995 233.896 338.227 236.505 335.103L260.059 306.899C262.354 304.152 266.685 305.569 266.685 309.149V309.149ZM256.607 284.065C259.078 281.107 259.56 276.679 256.6 274.21C253.495 271.622 249.864 270.524 245.983 270.524C234.549 270.524 225.28 280.309 225.28 309.149V309.149C225.28 313.56 230.571 315.24 233.399 311.854L256.607 284.065Z" fill="url(#paint18_linear)"/>
<path fill-rule="evenodd" clip-rule="evenodd" d="M1411.51 233.981C1412.89 231.522 1415.49 230 1418.31 230V230C1424.25 230 1428.01 236.385 1425.13 241.581L1397.42 291.463C1394.09 297.462 1398.43 304.833 1405.29 304.833H1409.41C1414.38 304.833 1418.41 300.804 1418.41 295.833V288.527C1418.41 284.076 1422.02 280.469 1426.47 280.469V280.469C1430.92 280.469 1434.53 284.076 1434.53 288.527V296.987C1434.53 301.32 1438.04 304.833 1442.37 304.833V304.833C1446.71 304.833 1450.22 308.346 1450.22 312.679V316.711C1450.22 321.044 1446.71 324.557 1442.37 324.557V324.557C1438.04 324.557 1434.53 328.069 1434.53 332.403V343.763C1434.53 348.214 1430.92 351.821 1426.47 351.821V351.821C1422.02 351.821 1418.41 348.214 1418.41 343.763V333.557C1418.41 328.586 1414.38 324.557 1409.41 324.557H1378.64C1373.67 324.557 1369.64 320.527 1369.64 315.557V309.765C1369.64 308.884 1369.88 308.019 1370.32 307.26L1371.75 304.836C1371.75 304.834 1371.75 304.833 1371.76 304.833V304.833C1371.76 304.833 1371.76 304.832 1371.76 304.831L1411.51 233.981Z" fill="url(#paint19_linear)"/>
<path fill-rule="evenodd" clip-rule="evenodd" d="M1602.36 234.561C1603.74 232.102 1606.34 230.58 1609.16 230.58V230.58C1615.1 230.58 1618.86 236.965 1615.97 242.161L1583.11 301.327C1581.71 303.849 1579.05 305.413 1576.17 305.413V305.413C1570.1 305.413 1566.27 298.879 1569.24 293.585L1602.36 234.561ZM1633.22 305.413C1637.55 305.413 1641.07 308.926 1641.07 313.259V317.291C1641.07 321.624 1637.55 325.137 1633.22 325.137V325.137C1628.89 325.137 1625.37 328.649 1625.37 332.983V344.344C1625.37 348.795 1621.77 352.402 1617.32 352.402V352.402C1612.87 352.402 1609.26 348.795 1609.26 344.344V334.137C1609.26 329.166 1605.23 325.137 1600.26 325.137H1569.49C1564.52 325.137 1560.49 321.107 1560.49 316.137V310.345C1560.49 309.464 1560.72 308.599 1561.17 307.84V307.84C1562.06 306.336 1563.67 305.413 1565.42 305.413H1600.26C1605.23 305.413 1609.26 301.384 1609.26 296.413V289.108C1609.26 284.657 1612.87 281.05 1617.32 281.05V281.05C1621.77 281.05 1625.37 284.657 1625.37 289.108V297.567C1625.37 301.901 1628.89 305.413 1633.22 305.413V305.413Z" fill="url(#paint20_linear)"/>
<path fill-rule="evenodd" clip-rule="evenodd" d="M1541.4 291.491C1541.4 337.377 1525.26 352.402 1505.35 352.402C1485.44 352.402 1469.3 336.971 1469.3 291.491C1469.3 246.011 1485.44 230.58 1505.35 230.58C1525.26 230.58 1541.4 245.605 1541.4 291.491ZM1525.2 291.491C1525.2 323.356 1516.31 333.79 1505.35 333.79C1501.92 333.79 1498.7 332.741 1495.88 330.333C1493.11 327.957 1493.44 323.786 1495.59 320.836L1518.54 289.449C1520.69 286.501 1525.2 287.839 1525.2 291.491V291.491ZM1516.16 263.164C1518.2 260.375 1518.62 256.512 1516.27 253.979C1513.14 250.605 1509.39 249.192 1505.35 249.192C1494.39 249.192 1485.51 259.908 1485.51 291.491V291.491C1485.51 295.991 1491 297.58 1493.66 293.948L1516.16 263.164Z" fill="url(#paint21_linear)"/>
<path fill-rule="evenodd" clip-rule="evenodd" d="M748.642 256.981C750.021 254.522 752.621 253 755.44 253V253C761.384 253 765.142 259.385 762.256 264.581L734.551 314.463C731.219 320.462 735.557 327.833 742.419 327.833H746.541C751.511 327.833 755.541 323.804 755.541 318.833V311.527C755.541 307.076 759.148 303.469 763.599 303.469V303.469C768.049 303.469 771.657 307.076 771.657 311.527V319.987C771.657 324.32 775.169 327.833 779.503 327.833V327.833C783.836 327.833 787.349 331.346 787.349 335.679V339.711C787.349 344.044 783.836 347.557 779.503 347.557V347.557C775.169 347.557 771.657 351.069 771.657 355.403V366.763C771.657 371.214 768.049 374.821 763.599 374.821V374.821C759.148 374.821 755.541 371.214 755.541 366.763V356.557C755.541 351.586 751.511 347.557 746.541 347.557H715.769C710.798 347.557 706.769 343.527 706.769 338.557V332.765C706.769 331.884 707.005 331.019 707.452 330.26L708.882 327.836C708.883 327.834 708.885 327.833 708.886 327.833V327.833C708.888 327.833 708.89 327.832 708.891 327.831L748.642 256.981Z" fill="url(#paint22_linear)"/>
<path fill-rule="evenodd" clip-rule="evenodd" d="M939.387 257.552C940.763 255.099 943.357 253.58 946.17 253.58V253.58C952.099 253.58 955.847 259.949 952.968 265.133L925.349 314.861C922.017 320.86 926.355 328.231 933.217 328.231H937.269C942.24 328.231 946.269 324.202 946.269 319.231V311.965C946.269 307.526 949.868 303.927 954.308 303.927V303.927C958.747 303.927 962.346 307.526 962.346 311.965V320.404C962.346 324.727 965.85 328.231 970.173 328.231V328.231C974.496 328.231 978 331.735 978 336.058V340.08C978 344.402 974.496 347.907 970.173 347.907V347.907C965.85 347.907 962.346 351.411 962.346 355.734V367.068C962.346 371.507 958.747 375.106 954.308 375.106V375.106C949.868 375.106 946.269 371.507 946.269 367.068V356.907C946.269 351.936 942.24 347.907 937.269 347.907H906.616C901.645 347.907 897.616 343.877 897.616 338.907V333.151C897.616 332.272 897.852 331.409 898.298 330.652L899.724 328.234C899.725 328.232 899.727 328.231 899.729 328.231V328.231C899.73 328.231 899.732 328.23 899.733 328.229L939.387 257.552Z" fill="url(#paint23_linear)"/>
<path fill-rule="evenodd" clip-rule="evenodd" d="M878.531 314.491C878.531 360.377 862.392 375.402 842.482 375.402C822.573 375.402 806.433 359.971 806.433 314.491C806.433 269.011 822.573 253.58 842.482 253.58C862.392 253.58 878.531 268.605 878.531 314.491ZM862.33 314.492C862.33 346.357 853.444 356.791 842.483 356.791C839.053 356.791 835.827 355.742 833.013 353.333C830.237 350.958 830.566 346.786 832.723 343.836L855.669 312.449C857.825 309.501 862.33 310.84 862.33 314.492V314.492ZM853.294 286.165C855.333 283.375 855.752 279.512 853.401 276.98C850.269 273.605 846.516 272.192 842.483 272.192C831.521 272.192 822.635 282.908 822.635 314.492V314.492C822.635 318.991 828.133 320.58 830.788 316.948L853.294 286.165Z" fill="url(#paint24_linear)"/>
<path fill-rule="evenodd" clip-rule="evenodd" d="M1602.7 42.9813C1604.08 40.5224 1606.68 39 1609.5 39V39C1615.44 39 1619.2 45.3849 1616.31 50.581L1588.61 100.463C1585.28 106.462 1589.62 113.833 1596.48 113.833H1600.6C1605.57 113.833 1609.6 109.804 1609.6 104.833V97.5267C1609.6 93.0764 1613.21 89.4688 1617.66 89.4688V89.4688C1622.11 89.4688 1625.71 93.0764 1625.71 97.5267V105.987C1625.71 110.32 1629.23 113.833 1633.56 113.833V113.833C1637.89 113.833 1641.41 117.346 1641.41 121.679V125.711C1641.41 130.044 1637.89 133.557 1633.56 133.557V133.557C1629.23 133.557 1625.71 137.069 1625.71 141.403V152.763C1625.71 157.214 1622.11 160.821 1617.66 160.821V160.821C1613.21 160.821 1609.6 157.214 1609.6 152.763V142.557C1609.6 137.586 1605.57 133.557 1600.6 133.557H1569.83C1564.86 133.557 1560.83 129.527 1560.83 124.557V118.765C1560.83 117.884 1561.06 117.019 1561.51 116.26L1562.94 113.836C1562.94 113.834 1562.94 113.833 1562.94 113.833V113.833C1562.95 113.833 1562.95 113.832 1562.95 113.831L1602.7 42.9813Z" fill="url(#paint25_linear)"/>
<path fill-rule="evenodd" clip-rule="evenodd" d="M1793.42 43.5488C1794.79 41.0977 1797.38 39.5801 1800.19 39.5801V39.5801C1806.12 39.5801 1809.86 45.9448 1806.99 51.1246L1779.39 100.808C1776.06 106.806 1780.4 114.177 1787.26 114.177H1791.29C1796.26 114.177 1800.29 110.148 1800.29 105.177V97.9239C1800.29 93.4876 1803.89 89.8913 1808.32 89.8913V89.8913C1812.76 89.8913 1816.36 93.4876 1816.36 97.9239V106.356C1816.36 110.676 1819.86 114.177 1824.18 114.177V114.177C1828.5 114.177 1832 117.679 1832 121.999V126.018C1832 130.337 1828.5 133.839 1824.18 133.839V133.839C1819.86 133.839 1816.36 137.34 1816.36 141.66V152.987C1816.36 157.423 1812.76 161.019 1808.32 161.019V161.019C1803.89 161.019 1800.29 157.423 1800.29 152.987V142.839C1800.29 137.868 1796.26 133.839 1791.29 133.839H1760.67C1755.7 133.839 1751.67 129.809 1751.67 124.839V119.094C1751.67 118.216 1751.91 117.353 1752.36 116.596L1753.78 114.18C1753.78 114.178 1753.78 114.177 1753.78 114.177V114.177C1753.79 114.177 1753.79 114.176 1753.79 114.175L1793.42 43.5488Z" fill="url(#paint26_linear)"/>
<path fill-rule="evenodd" clip-rule="evenodd" d="M1732.59 100.491C1732.59 146.377 1716.45 161.402 1696.54 161.402C1676.63 161.402 1660.49 145.971 1660.49 100.491C1660.49 55.0108 1676.63 39.5801 1696.54 39.5801C1716.45 39.5801 1732.59 54.6047 1732.59 100.491ZM1716.39 100.491C1716.39 132.356 1707.5 142.79 1696.54 142.79C1693.11 142.79 1689.89 141.741 1687.07 139.333C1684.29 136.957 1684.62 132.786 1686.78 129.836L1709.73 98.4486C1711.88 95.5007 1716.39 96.8393 1716.39 100.491V100.491ZM1707.35 72.1642C1709.39 69.3747 1709.81 65.5119 1707.46 62.9793C1704.33 59.605 1700.57 58.1919 1696.54 58.1919C1685.58 58.1919 1676.69 68.9077 1676.69 100.491V100.491C1676.69 104.991 1682.19 106.58 1684.85 102.948L1707.35 72.1642Z" fill="url(#paint27_linear)"/>
<path fill-rule="evenodd" clip-rule="evenodd" d="M473.527 230.521C474.134 229.573 475.182 229 476.307 229V229C478.912 229 480.491 231.873 479.096 234.072L468.392 250.944C466.524 253.888 468.639 257.734 472.126 257.734V257.734C474.568 257.734 476.548 255.755 476.548 253.313V251.914C476.548 249.962 478.13 248.379 480.082 248.379V248.379C482.034 248.379 483.617 249.962 483.617 251.914V254.293C483.617 256.193 485.157 257.734 487.058 257.734V257.734C488.959 257.734 490.5 259.275 490.5 261.176V261.866C490.5 263.767 488.959 265.308 487.058 265.308V265.308C485.157 265.308 483.617 266.849 483.617 268.749V272.243C483.617 274.195 482.034 275.777 480.082 275.777V275.777C478.13 275.777 476.548 274.195 476.548 272.243V270.543C476.548 267.651 474.204 265.308 471.313 265.308H459.901C457.279 265.308 455.154 263.183 455.154 260.561V259.717C455.154 259.322 455.272 258.936 455.493 258.609L456.081 257.735C456.082 257.735 456.083 257.734 456.083 257.734V257.734C456.084 257.734 456.085 257.734 456.086 257.733L473.527 230.521Z" fill="url(#paint28_linear)"/>
<path fill-rule="evenodd" clip-rule="evenodd" d="M557.239 230.743C557.846 229.796 558.894 229.223 560.02 229.223V229.223C562.624 229.223 564.204 232.096 562.809 234.295L548.787 256.396C548.17 257.368 547.098 257.957 545.947 257.957V257.957C543.288 257.957 541.681 255.018 543.116 252.779L557.239 230.743ZM570.771 257.957C572.671 257.957 574.212 259.498 574.212 261.399V262.089C574.212 263.99 572.671 265.531 570.771 265.531V265.531C568.87 265.531 567.329 267.072 567.329 268.972V272.465C567.329 274.417 565.747 276 563.795 276V276C561.842 276 560.26 274.417 560.26 272.465V270.765C560.26 267.874 557.916 265.531 555.026 265.531H543.613C540.992 265.531 538.867 263.406 538.867 260.784V259.94C538.867 259.545 538.985 259.16 539.205 258.832V258.832C539.573 258.285 540.19 257.957 540.849 257.957H555.582C558.166 257.957 560.26 255.863 560.26 253.28V252.136C560.26 250.184 561.842 248.602 563.795 248.602V248.602C565.747 248.602 567.329 250.184 567.329 252.136V254.516C567.329 256.417 568.87 257.957 570.771 257.957V257.957Z" fill="url(#paint29_linear)"/>
<path fill-rule="evenodd" clip-rule="evenodd" d="M530.496 252.611C530.496 270.231 523.416 276 514.683 276C505.95 276 498.871 270.075 498.871 252.611C498.871 235.148 505.95 229.223 514.683 229.223C523.416 229.223 530.496 234.992 530.496 252.611ZM523.389 252.611C523.389 264.847 519.491 268.853 514.683 268.853C514.172 268.853 513.671 268.807 513.184 268.709C510.065 268.083 510.255 264.054 512.295 261.612L520.602 251.665C521.567 250.51 523.389 251.106 523.389 252.611V252.611ZM517.453 244.095C519.507 241.636 519.902 237.592 516.833 236.671C516.145 236.465 515.425 236.369 514.683 236.369C509.875 236.369 505.978 240.484 505.978 252.611V252.611C505.978 254.466 508.202 255.172 509.391 253.749L517.453 244.095Z" fill="url(#paint30_linear)"/>
<path fill-rule="evenodd" clip-rule="evenodd" d="M990.482 834.521C991.089 833.573 992.137 833 993.262 833V833C995.867 833 997.446 835.873 996.051 838.072L985.347 854.943C983.48 857.887 985.595 861.734 989.081 861.734V861.734C991.523 861.734 993.503 859.754 993.503 857.312V855.913C993.503 853.961 995.085 852.379 997.037 852.379V852.379C998.989 852.379 1000.57 853.961 1000.57 855.913V858.292C1000.57 860.193 1002.11 861.734 1004.01 861.734V861.734C1005.91 861.734 1007.46 863.275 1007.46 865.176V865.866C1007.46 867.766 1005.91 869.307 1004.01 869.307V869.307C1002.11 869.307 1000.57 870.848 1000.57 872.749V876.242C1000.57 878.195 998.989 879.777 997.037 879.777V879.777C995.085 879.777 993.503 878.195 993.503 876.242V874.542C993.503 871.651 991.159 869.307 988.268 869.307H976.857C974.235 869.307 972.11 867.182 972.11 864.561V863.716C972.11 863.322 972.228 862.936 972.448 862.609L973.037 861.735C973.037 861.734 973.038 861.734 973.039 861.734V861.734C973.04 861.734 973.04 861.733 973.041 861.733L990.482 834.521Z" fill="url(#paint31_linear)"/>
<path fill-rule="evenodd" clip-rule="evenodd" d="M1074.19 834.743C1074.8 833.796 1075.85 833.223 1076.97 833.223V833.223C1079.58 833.223 1081.16 836.096 1079.76 838.295L1069.06 855.166C1067.19 858.11 1069.31 861.957 1072.79 861.957V861.957C1075.24 861.957 1077.22 859.977 1077.22 857.535V856.136C1077.22 854.184 1078.8 852.602 1080.75 852.602V852.602C1082.7 852.602 1084.28 854.184 1084.28 856.136V858.515C1084.28 860.416 1085.82 861.957 1087.73 861.957V861.957C1089.63 861.957 1091.17 863.498 1091.17 865.399V866.089C1091.17 867.99 1089.63 869.531 1087.73 869.531V869.531C1085.82 869.531 1084.28 871.071 1084.28 872.972V876.465C1084.28 878.417 1082.7 880 1080.75 880V880C1078.8 880 1077.22 878.417 1077.22 876.465V874.765C1077.22 871.874 1074.87 869.531 1071.98 869.531H1060.57C1057.95 869.531 1055.82 867.405 1055.82 864.784V863.94C1055.82 863.545 1055.94 863.159 1056.16 862.832L1056.75 861.958C1056.75 861.957 1056.75 861.957 1056.75 861.957V861.957C1056.75 861.957 1056.75 861.957 1056.75 861.956L1074.19 834.743Z" fill="url(#paint32_linear)"/>
<path fill-rule="evenodd" clip-rule="evenodd" d="M1047.45 856.611C1047.45 874.231 1040.37 880 1031.64 880C1022.91 880 1015.83 874.075 1015.83 856.611C1015.83 839.148 1022.91 833.223 1031.64 833.223C1040.37 833.223 1047.45 838.992 1047.45 856.611ZM1040.34 856.611C1040.34 868.847 1036.45 872.853 1031.64 872.853C1031.13 872.853 1030.63 872.807 1030.14 872.709C1027.02 872.083 1027.21 868.055 1029.25 865.613L1037.56 855.665C1038.52 854.51 1040.34 855.106 1040.34 856.611V856.611ZM1034.41 848.095C1036.46 845.636 1036.86 841.592 1033.79 840.671C1033.1 840.465 1032.38 840.369 1031.64 840.369C1026.83 840.369 1022.93 844.484 1022.93 856.611V856.611C1022.93 858.466 1025.16 859.172 1026.35 857.749L1034.41 848.095Z" fill="url(#paint33_linear)"/>
<path fill-rule="evenodd" clip-rule="evenodd" d="M873.561 442.521C874.169 441.573 875.217 441 876.342 441V441C878.946 441 880.526 443.873 879.131 446.072L868.427 462.944C866.559 465.888 868.674 469.734 872.161 469.734V469.734C874.603 469.734 876.582 467.754 876.582 465.312V463.913C876.582 461.961 878.165 460.379 880.117 460.379V460.379C882.069 460.379 883.651 461.961 883.651 463.913V466.293C883.651 468.193 885.192 469.734 887.093 469.734V469.734C888.994 469.734 890.534 471.275 890.534 473.176V473.866C890.534 475.767 888.994 477.308 887.093 477.308V477.308C885.192 477.308 883.651 478.848 883.651 480.749V484.242C883.651 486.195 882.069 487.777 880.117 487.777V487.777C878.165 487.777 876.582 486.195 876.582 484.242V482.542C876.582 479.651 874.239 477.308 871.348 477.308H859.936C857.314 477.308 855.189 475.182 855.189 472.561V471.717C855.189 471.322 855.307 470.936 855.528 470.609L856.116 469.735C856.117 469.735 856.117 469.734 856.118 469.734V469.734C856.119 469.734 856.12 469.734 856.12 469.733L873.561 442.521Z" fill="url(#paint34_linear)"/>
<path fill-rule="evenodd" clip-rule="evenodd" d="M959.362 442.916C960.038 441.861 961.205 441.223 962.459 441.223V441.223C965.359 441.223 967.119 444.423 965.565 446.872L953.644 465.661C951.564 468.939 953.919 473.223 957.802 473.223V473.223C960.522 473.223 962.727 471.019 962.727 468.299V466.741C962.727 464.567 964.489 462.805 966.663 462.805V462.805C968.837 462.805 970.599 464.567 970.599 466.741V469.391C970.599 471.507 972.315 473.223 974.432 473.223V473.223C976.549 473.223 978.264 474.939 978.264 477.056V477.825C978.264 479.942 976.549 481.658 974.432 481.658V481.658C972.315 481.658 970.599 483.374 970.599 485.49V489.381C970.599 491.555 968.837 493.317 966.663 493.317V493.317C964.489 493.317 962.727 491.555 962.727 489.381V487.487C962.727 484.268 960.117 481.658 956.897 481.658H944.188C941.268 481.658 938.901 479.291 938.901 476.371V475.431C938.901 474.992 939.033 474.562 939.278 474.198L939.934 473.225C939.934 473.224 939.935 473.223 939.936 473.223V473.223C939.937 473.223 939.938 473.223 939.938 473.222L959.362 442.916Z" fill="url(#paint35_linear)"/>
<path fill-rule="evenodd" clip-rule="evenodd" d="M930.53 464.611C930.53 482.231 923.451 488 914.718 488C905.985 488 898.906 482.075 898.906 464.611C898.906 447.148 905.985 441.223 914.718 441.223C923.451 441.223 930.53 446.992 930.53 464.611ZM923.423 464.611C923.423 476.847 919.526 480.853 914.718 480.853C914.207 480.853 913.706 480.807 913.219 480.709C910.1 480.084 910.29 476.055 912.33 473.613L920.637 463.665C921.602 462.51 923.423 463.106 923.423 464.611V464.611ZM917.488 456.095C919.542 453.636 919.937 449.592 916.868 448.671C916.181 448.465 915.46 448.369 914.718 448.369C909.91 448.369 906.012 452.484 906.012 464.611V464.611C906.012 466.466 908.237 467.173 909.426 465.749L917.488 456.095Z" fill="url(#paint36_linear)"/>
<path fill-rule="evenodd" clip-rule="evenodd" d="M1806.73 240.521C1807.33 239.573 1808.38 239 1809.51 239V239C1812.11 239 1813.69 241.873 1812.3 244.072L1801.59 260.944C1799.73 263.888 1801.84 267.734 1805.33 267.734V267.734C1807.77 267.734 1809.75 265.754 1809.75 263.312V261.913C1809.75 259.961 1811.33 258.379 1813.28 258.379V258.379C1815.24 258.379 1816.82 259.961 1816.82 261.913V264.293C1816.82 266.193 1818.36 267.734 1820.26 267.734V267.734C1822.16 267.734 1823.7 269.275 1823.7 271.176V271.866C1823.7 273.767 1822.16 275.308 1820.26 275.308V275.308C1818.36 275.308 1816.82 276.848 1816.82 278.749V282.242C1816.82 284.195 1815.24 285.777 1813.28 285.777V285.777C1811.33 285.777 1809.75 284.195 1809.75 282.242V280.542C1809.75 277.651 1807.4 275.308 1804.51 275.308H1793.1C1790.48 275.308 1788.36 273.182 1788.36 270.561V269.717C1788.36 269.322 1788.47 268.936 1788.69 268.609L1789.28 267.735C1789.28 267.735 1789.28 267.734 1789.28 267.734V267.734C1789.29 267.734 1789.29 267.734 1789.29 267.733L1806.73 240.521Z" fill="url(#paint37_linear)"/>
<path fill-rule="evenodd" clip-rule="evenodd" d="M1892.53 240.916C1893.2 239.861 1894.37 239.223 1895.63 239.223V239.223C1898.53 239.223 1900.28 242.423 1898.73 244.872L1886.81 263.661C1884.73 266.939 1887.09 271.223 1890.97 271.223V271.223C1893.69 271.223 1895.89 269.019 1895.89 266.299V264.741C1895.89 262.567 1897.66 260.805 1899.83 260.805V260.805C1902 260.805 1903.77 262.567 1903.77 264.741V267.391C1903.77 269.507 1905.48 271.223 1907.6 271.223V271.223C1909.71 271.223 1911.43 272.939 1911.43 275.056V275.825C1911.43 277.942 1909.71 279.658 1907.6 279.658V279.658C1905.48 279.658 1903.77 281.374 1903.77 283.49V287.381C1903.77 289.555 1902 291.317 1899.83 291.317V291.317C1897.66 291.317 1895.89 289.555 1895.89 287.381V285.487C1895.89 282.268 1893.28 279.658 1890.06 279.658H1877.35C1874.43 279.658 1872.07 277.291 1872.07 274.371V273.431C1872.07 272.992 1872.2 272.562 1872.44 272.198L1873.1 271.225C1873.1 271.224 1873.1 271.223 1873.1 271.223V271.223C1873.1 271.223 1873.1 271.223 1873.1 271.222L1892.53 240.916Z" fill="url(#paint38_linear)"/>
<path fill-rule="evenodd" clip-rule="evenodd" d="M1863.7 262.612C1863.7 280.231 1856.62 286 1847.88 286C1839.15 286 1832.07 280.075 1832.07 262.612C1832.07 245.148 1839.15 239.223 1847.88 239.223C1856.62 239.223 1863.7 244.992 1863.7 262.612ZM1856.59 262.612C1856.59 274.847 1852.69 278.854 1847.88 278.854C1847.37 278.854 1846.87 278.807 1846.39 278.71C1843.27 278.084 1843.46 274.055 1845.5 271.613L1853.8 261.666C1854.77 260.51 1856.59 261.106 1856.59 262.612V262.612ZM1850.65 254.096C1852.71 251.637 1853.1 247.593 1850.03 246.671C1849.35 246.465 1848.63 246.37 1847.88 246.37C1843.08 246.37 1839.18 250.484 1839.18 262.612V262.612C1839.18 264.467 1841.4 265.173 1842.59 263.749L1850.65 254.096Z" fill="url(#paint39_linear)"/>
<path fill-rule="evenodd" clip-rule="evenodd" d="M1436.19 629.43C1436.77 628.539 1437.75 628 1438.81 628V628C1441.26 628 1442.75 630.703 1441.43 632.771L1431.36 648.641C1429.61 651.41 1431.6 655.029 1434.88 655.029V655.029C1437.17 655.029 1439.04 653.166 1439.04 650.869V649.553C1439.04 647.717 1440.52 646.229 1442.36 646.229V646.229C1444.2 646.229 1445.69 647.717 1445.69 649.553V651.791C1445.69 653.579 1447.13 655.029 1448.92 655.029V655.029C1450.71 655.029 1452.16 656.478 1452.16 658.266V658.915C1452.16 660.703 1450.71 662.153 1448.92 662.153V662.153C1447.13 662.153 1445.69 663.602 1445.69 665.39V668.675C1445.69 670.512 1444.2 672 1442.36 672V672C1440.52 672 1439.04 670.512 1439.04 668.675V667.076C1439.04 664.357 1436.83 662.153 1434.11 662.153H1423.38C1420.91 662.153 1418.91 660.154 1418.91 657.688V656.893C1418.91 656.522 1419.02 656.159 1419.23 655.852L1419.78 655.03C1419.78 655.029 1419.79 655.029 1419.79 655.029V655.029C1419.79 655.029 1419.79 655.028 1419.79 655.028L1436.19 629.43Z" fill="url(#paint40_linear)"/>
<path fill-rule="evenodd" clip-rule="evenodd" d="M1521 629.743C1521.6 628.796 1522.65 628.223 1523.78 628.223V628.223C1526.38 628.223 1527.96 631.096 1526.57 633.295L1515.86 650.166C1513.99 653.11 1516.11 656.957 1519.6 656.957V656.957C1522.04 656.957 1524.02 654.977 1524.02 652.535V651.136C1524.02 649.184 1525.6 647.602 1527.55 647.602V647.602C1529.5 647.602 1531.09 649.184 1531.09 651.136V653.515C1531.09 655.416 1532.63 656.957 1534.53 656.957V656.957C1536.43 656.957 1537.97 658.498 1537.97 660.398V661.089C1537.97 662.989 1536.43 664.53 1534.53 664.53V664.53C1532.63 664.53 1531.09 666.071 1531.09 667.972V671.465C1531.09 673.417 1529.5 675 1527.55 675V675C1525.6 675 1524.02 673.417 1524.02 671.465V669.765C1524.02 666.874 1521.67 664.53 1518.78 664.53H1507.37C1504.75 664.53 1502.62 662.405 1502.62 659.784V658.939C1502.62 658.545 1502.74 658.159 1502.96 657.832L1503.55 656.958C1503.55 656.957 1503.55 656.957 1503.55 656.957V656.957C1503.55 656.957 1503.56 656.956 1503.56 656.956L1521 629.743Z" fill="url(#paint41_linear)"/>
<path fill-rule="evenodd" clip-rule="evenodd" d="M1494.25 651.611C1494.25 669.231 1487.17 675 1478.44 675C1469.71 675 1462.63 669.075 1462.63 651.611C1462.63 634.148 1469.71 628.223 1478.44 628.223C1487.17 628.223 1494.25 633.992 1494.25 651.611ZM1487.15 651.611C1487.15 663.847 1483.25 667.853 1478.44 667.853C1477.93 667.853 1477.43 667.807 1476.94 667.709C1473.82 667.083 1474.01 663.055 1476.05 660.613L1484.36 650.665C1485.33 649.51 1487.15 650.106 1487.15 651.611V651.611ZM1481.21 643.095C1483.27 640.636 1483.66 636.592 1480.59 635.671C1479.9 635.465 1479.18 635.369 1478.44 635.369C1473.63 635.369 1469.74 639.484 1469.74 651.611V651.611C1469.74 653.466 1471.96 654.172 1473.15 652.749L1481.21 643.095Z" fill="url(#paint42_linear)"/>
<path fill-rule="evenodd" clip-rule="evenodd" d="M189.577 101.521C190.184 100.573 191.232 100 192.358 100V100C194.962 100 196.542 102.873 195.147 105.072L184.443 121.944C182.575 124.888 184.69 128.734 188.176 128.734V128.734C190.619 128.734 192.598 126.755 192.598 124.312V122.914C192.598 120.962 194.181 119.379 196.133 119.379V119.379C198.085 119.379 199.667 120.962 199.667 122.914V125.293C199.667 127.193 201.208 128.734 203.109 128.734V128.734C205.009 128.734 206.55 130.275 206.55 132.176V132.866C206.55 134.767 205.009 136.308 203.109 136.308V136.308C201.208 136.308 199.667 137.848 199.667 139.749V143.243C199.667 145.195 198.085 146.777 196.133 146.777V146.777C194.181 146.777 192.598 145.195 192.598 143.243V141.543C192.598 138.651 190.255 136.308 187.363 136.308H175.952C173.33 136.308 171.205 134.183 171.205 131.561V130.717C171.205 130.322 171.323 129.936 171.543 129.609L172.132 128.735C172.132 128.735 172.133 128.734 172.134 128.734V128.734C172.135 128.734 172.135 128.734 172.136 128.733L189.577 101.521Z" fill="url(#paint43_linear)"/>
<path fill-rule="evenodd" clip-rule="evenodd" d="M273.289 101.744C273.897 100.796 274.944 100.223 276.07 100.223V100.223C278.674 100.223 280.254 103.096 278.859 105.295L268.155 122.167C266.287 125.111 268.402 128.957 271.889 128.957V128.957C274.331 128.957 276.31 126.978 276.31 124.536V123.137C276.31 121.185 277.893 119.603 279.845 119.603V119.603C281.797 119.603 283.379 121.185 283.379 123.137V125.516C283.379 127.417 284.92 128.957 286.821 128.957V128.957C288.722 128.957 290.263 130.498 290.263 132.399V133.089C290.263 134.99 288.722 136.531 286.821 136.531V136.531C284.92 136.531 283.379 138.072 283.379 139.972V143.466C283.379 145.418 281.797 147.001 279.845 147.001V147.001C277.893 147.001 276.31 145.418 276.31 143.466V141.766C276.31 138.875 273.967 136.531 271.076 136.531H259.664C257.042 136.531 254.917 134.406 254.917 131.784V130.94C254.917 130.545 255.035 130.16 255.256 129.832L255.844 128.958C255.845 128.958 255.845 128.957 255.846 128.957V128.957C255.847 128.957 255.848 128.957 255.848 128.956L273.289 101.744Z" fill="url(#paint44_linear)"/>
<path fill-rule="evenodd" clip-rule="evenodd" d="M246.546 123.611C246.546 141.231 239.466 147 230.733 147C222.001 147 214.921 141.075 214.921 123.611C214.921 106.148 222.001 100.223 230.733 100.223C239.466 100.223 246.546 105.992 246.546 123.611ZM239.439 123.611C239.439 135.847 235.542 139.853 230.734 139.853C230.223 139.853 229.722 139.807 229.235 139.709C226.116 139.084 226.306 135.055 228.345 132.613L236.653 122.665C237.618 121.51 239.439 122.106 239.439 123.611V123.611ZM233.504 115.095C235.558 112.636 235.953 108.592 232.884 107.671C232.196 107.465 231.476 107.369 230.734 107.369C225.926 107.369 222.028 111.484 222.028 123.611V123.611C222.028 125.466 224.253 126.173 225.442 124.749L233.504 115.095Z" fill="url(#paint45_linear)"/>
<path fill-rule="evenodd" clip-rule="evenodd" d="M131.587 472.521C132.194 471.573 133.242 471 134.368 471V471C136.972 471 138.552 473.873 137.157 476.072L126.453 492.944C124.585 495.888 126.7 499.734 130.186 499.734V499.734C132.629 499.734 134.608 497.755 134.608 495.312V493.913C134.608 491.961 136.191 490.379 138.143 490.379V490.379C140.095 490.379 141.677 491.961 141.677 493.913V496.293C141.677 498.193 143.218 499.734 145.119 499.734V499.734C147.019 499.734 148.56 501.275 148.56 503.176V503.866C148.56 505.767 147.019 507.308 145.119 507.308V507.308C143.218 507.308 141.677 508.848 141.677 510.749V514.242C141.677 516.195 140.095 517.777 138.143 517.777V517.777C136.191 517.777 134.608 516.195 134.608 514.242V512.542C134.608 509.651 132.265 507.308 129.374 507.308H117.962C115.34 507.308 113.215 505.183 113.215 502.561V501.717C113.215 501.322 113.333 500.936 113.553 500.609L114.142 499.735C114.142 499.735 114.143 499.734 114.144 499.734V499.734C114.145 499.734 114.145 499.734 114.146 499.733L131.587 472.521Z" fill="url(#paint46_linear)"/>
<path fill-rule="evenodd" clip-rule="evenodd" d="M215.299 472.744C215.907 471.797 216.955 471.224 218.08 471.224V471.224C220.684 471.224 222.264 474.097 220.869 476.296L210.165 493.167C208.297 496.111 210.412 499.958 213.899 499.958V499.958C216.341 499.958 218.32 497.978 218.32 495.536V494.137C218.32 492.185 219.903 490.603 221.855 490.603V490.603C223.807 490.603 225.389 492.185 225.389 494.137V496.516C225.389 498.417 226.93 499.958 228.831 499.958V499.958C230.732 499.958 232.273 501.499 232.273 503.399V504.09C232.273 505.991 230.732 507.531 228.831 507.531V507.531C226.93 507.531 225.389 509.072 225.389 510.973V514.466C225.389 516.418 223.807 518.001 221.855 518.001V518.001C219.903 518.001 218.32 516.418 218.32 514.466V512.766C218.32 509.875 215.977 507.531 213.086 507.531H201.674C199.052 507.531 196.927 505.406 196.927 502.785V501.94C196.927 501.546 197.045 501.16 197.266 500.833L197.854 499.959C197.855 499.958 197.855 499.958 197.856 499.958V499.958C197.857 499.958 197.858 499.958 197.858 499.957L215.299 472.744Z" fill="url(#paint47_linear)"/>
<path fill-rule="evenodd" clip-rule="evenodd" d="M188.556 494.611C188.556 512.231 181.476 518 172.744 518C164.011 518 156.931 512.075 156.931 494.611C156.931 477.148 164.011 471.223 172.744 471.223C181.476 471.223 188.556 476.992 188.556 494.611ZM181.449 494.611C181.449 506.847 177.552 510.853 172.744 510.853C172.233 510.853 171.732 510.807 171.245 510.709C168.126 510.084 168.316 506.055 170.355 503.613L178.663 493.665C179.628 492.51 181.449 493.106 181.449 494.611V494.611ZM175.514 486.095C177.568 483.636 177.963 479.592 174.894 478.671C174.206 478.465 173.486 478.369 172.744 478.369C167.936 478.369 164.038 482.484 164.038 494.611V494.611C164.038 496.466 166.263 497.173 167.452 495.749L175.514 486.095Z" fill="url(#paint48_linear)"/>
<path fill-rule="evenodd" clip-rule="evenodd" d="M776.958 521.144C778.613 518.562 781.469 517 784.536 517H798.155C805.252 517 809.557 524.829 805.755 530.822L741.837 631.567C738.035 637.559 742.34 645.389 749.436 645.389H779.757C784.728 645.389 788.757 641.359 788.757 636.389V612.588C788.757 607.617 792.787 603.588 797.757 603.588H811.343C816.313 603.588 820.343 607.617 820.343 612.588V636.389C820.343 641.359 824.372 645.389 829.343 645.389H842.097C847.067 645.389 851.097 649.418 851.097 654.389V670.227C851.097 675.198 847.067 679.227 842.097 679.227H829.343C824.372 679.227 820.343 683.257 820.343 688.227V717.005C820.343 721.975 816.313 726.005 811.343 726.005H797.757C792.787 726.005 788.757 721.975 788.757 717.005V688.227C788.757 683.257 784.728 679.227 779.757 679.227H702.171C697.2 679.227 693.171 675.198 693.171 670.227V654.247C693.171 652.483 693.697 650.76 694.683 649.297L697.313 645.393C697.315 645.39 697.318 645.389 697.321 645.389V645.389C697.325 645.389 697.328 645.387 697.33 645.384L776.958 521.144Z" fill="url(#paint49_linear)"/>
<path fill-rule="evenodd" clip-rule="evenodd" d="M1150.99 522.139C1152.65 519.557 1155.5 517.995 1158.57 517.995H1172.19C1179.29 517.995 1183.59 525.825 1179.79 531.817L1115.87 632.562C1112.07 638.554 1116.37 646.384 1123.47 646.384H1153.79C1158.76 646.384 1162.79 642.354 1162.79 637.384V613.583C1162.79 608.612 1166.82 604.583 1171.79 604.583H1185.38C1190.35 604.583 1194.38 608.612 1194.38 613.583V637.384C1194.38 642.354 1198.41 646.384 1203.38 646.384H1216.13C1221.1 646.384 1225.13 650.413 1225.13 655.384V671.223C1225.13 676.193 1221.1 680.223 1216.13 680.223H1203.38C1198.41 680.223 1194.38 684.252 1194.38 689.223V718C1194.38 722.97 1190.35 727 1185.38 727H1171.79C1166.82 727 1162.79 722.97 1162.79 718V689.223C1162.79 684.252 1158.76 680.223 1153.79 680.223H1076.21C1071.23 680.223 1067.21 676.193 1067.21 671.223V655.242C1067.21 653.478 1067.73 651.755 1068.72 650.292L1071.35 646.388C1071.35 646.385 1071.35 646.384 1071.36 646.384V646.384C1071.36 646.384 1071.36 646.382 1071.36 646.379L1150.99 522.139Z" fill="url(#paint50_linear)"/>
<path fill-rule="evenodd" clip-rule="evenodd" d="M1029.8 622.497C1029.8 701.223 998.17 727 959.151 727C920.132 727 888.5 700.526 888.5 622.497C888.5 544.469 920.132 517.995 959.151 517.995C998.17 517.995 1029.8 543.772 1029.8 622.497ZM998.049 622.498C998.049 677.169 980.634 695.069 959.151 695.069C951.129 695.069 943.675 692.506 937.482 686.472C934.567 683.632 934.848 679.04 937.456 675.916L985.597 618.272C989.909 613.109 998.049 615.772 998.049 622.498V622.498ZM982.744 571.019C985.215 568.06 985.615 563.773 983.113 560.84C976.509 553.096 968.19 549.927 959.151 549.927C937.668 549.927 920.253 568.312 920.253 622.498C920.253 622.823 920.254 623.146 920.255 623.468C920.286 631.391 929.806 634.406 934.885 628.325L982.744 571.019Z" fill="url(#paint51_linear)"/>
<path fill-rule="evenodd" clip-rule="evenodd" d="M847.251 873.491C848.906 870.909 851.761 869.348 854.828 869.348H865.328C872.424 869.348 876.729 877.177 872.927 883.169L816.29 972.438C812.488 978.43 816.793 986.26 823.89 986.26H849.233C854.203 986.26 858.233 982.231 858.233 977.26V957.196C858.233 952.226 862.262 948.196 867.233 948.196H877.995C882.965 948.196 886.995 952.226 886.995 957.196V977.26C886.995 982.231 891.024 986.26 895.995 986.26H906C910.97 986.26 915 990.289 915 995.26V1008.07C915 1013.04 910.97 1017.07 906 1017.07H895.995C891.024 1017.07 886.995 1021.1 886.995 1026.07V1050.67C886.995 1055.64 882.965 1059.67 877.995 1059.67H867.233C862.262 1059.67 858.233 1055.64 858.233 1050.67V1026.07C858.233 1021.1 854.203 1017.07 849.233 1017.07H780.19C775.219 1017.07 771.19 1013.04 771.19 1008.07V994.326C771.19 992.72 771.669 991.151 772.566 989.819L774.961 986.264C774.963 986.262 774.966 986.26 774.969 986.26V986.26C774.973 986.26 774.976 986.258 774.978 986.255L847.251 873.491Z" fill="url(#paint52_linear)"/>
<path fill-rule="evenodd" clip-rule="evenodd" d="M737.129 964.51C737.129 1036.2 708.325 1059.67 672.793 1059.67C637.261 1059.67 608.457 1035.56 608.457 964.51C608.457 893.455 637.261 869.348 672.793 869.348C708.325 869.348 737.129 892.821 737.129 964.51ZM708.214 964.51C708.214 1014.29 692.356 1030.59 672.793 1030.59C665.68 1030.59 659.056 1028.38 653.507 1023.19C650.534 1020.41 650.824 1015.8 653.433 1012.68L696.876 960.661C700.803 955.96 708.214 958.385 708.214 964.51V964.51ZM693.908 918.074C696.379 915.115 696.789 910.817 694.237 907.928C688.284 901.193 680.853 898.425 672.793 898.425C653.231 898.425 637.372 915.167 637.372 964.51V964.51C637.372 972.057 646.424 974.931 651.262 969.138L693.908 918.074Z" fill="url(#paint53_linear)"/>
<path fill-rule="evenodd" clip-rule="evenodd" d="M1154.09 837.144C1155.74 834.562 1158.6 833 1161.66 833H1175.62C1182.71 833 1187.02 840.829 1183.22 846.822L1118.52 948.793C1114.72 954.785 1119.02 962.614 1126.12 962.614H1156.97C1161.94 962.614 1165.97 958.585 1165.97 953.614V929.414C1165.97 924.444 1170 920.414 1174.97 920.414H1188.86C1193.83 920.414 1197.86 924.444 1197.86 929.414V953.614C1197.86 958.585 1201.89 962.614 1206.86 962.614H1219.91C1224.88 962.614 1228.91 966.644 1228.91 971.614V987.776C1228.91 992.747 1224.88 996.776 1219.91 996.776H1206.86C1201.89 996.776 1197.86 1000.81 1197.86 1005.78V1035C1197.86 1039.97 1193.83 1044 1188.86 1044H1174.97C1170 1044 1165.97 1039.97 1165.97 1035V1005.78C1165.97 1000.81 1161.94 996.776 1156.97 996.776H1078.47C1073.5 996.776 1069.47 992.747 1069.47 987.776V971.557C1069.47 969.777 1070 968.037 1071 966.56L1073.65 962.619C1073.66 962.616 1073.66 962.614 1073.66 962.614V962.614C1073.67 962.614 1073.67 962.612 1073.67 962.61L1154.09 837.144Z" fill="url(#paint54_linear)"/>
<path fill-rule="evenodd" clip-rule="evenodd" d="M1529.49 838.144C1531.14 835.562 1534 834 1537.07 834H1550.85C1557.95 834 1562.25 841.829 1558.45 847.822L1494.14 949.178C1490.34 955.17 1494.65 963 1501.74 963H1532.33C1537.3 963 1541.33 958.97 1541.33 954V930C1541.33 925.029 1545.36 921 1550.33 921H1564.07C1569.04 921 1573.07 925.029 1573.07 930V954C1573.07 958.97 1577.1 963 1582.07 963H1594.97C1599.94 963 1603.97 967.029 1603.97 972V988C1603.97 992.97 1599.94 997 1594.97 997H1582.07C1577.1 997 1573.07 1001.03 1573.07 1006V1035C1573.07 1039.97 1569.04 1044 1564.07 1044H1550.33C1545.36 1044 1541.33 1039.97 1541.33 1035V1006C1541.33 1001.03 1537.3 997 1532.33 997H1454.29C1449.32 997 1445.29 992.97 1445.29 988V971.9C1445.29 970.128 1445.82 968.397 1446.81 966.927L1449.45 963.004C1449.45 963.001 1449.46 963 1449.46 963V963C1449.46 963 1449.47 962.998 1449.47 962.995L1529.49 838.144Z" fill="url(#paint55_linear)"/>
<path fill-rule="evenodd" clip-rule="evenodd" d="M1407.71 939C1407.71 1018.1 1375.93 1044 1336.72 1044C1297.51 1044 1265.73 1017.4 1265.73 939C1265.73 860.6 1297.51 834 1336.72 834C1375.93 834 1407.71 859.9 1407.71 939ZM1375.8 939.001C1375.8 993.931 1358.3 1011.92 1336.72 1011.92C1328.65 1011.92 1321.15 1009.34 1314.92 1003.26C1312.01 1000.41 1312.29 995.822 1314.9 992.698L1363.29 934.754C1367.62 929.567 1375.8 932.242 1375.8 939.001V939.001ZM1360.44 887.252C1362.92 884.294 1363.32 880.007 1360.82 877.072C1354.18 869.275 1345.81 866.084 1336.72 866.084C1315.14 866.084 1297.64 884.556 1297.64 939.001C1297.64 939.361 1297.64 939.719 1297.64 940.076C1297.67 947.998 1307.2 951.013 1312.27 944.932L1360.44 887.252Z" fill="url(#paint56_linear)"/>
<path fill-rule="evenodd" clip-rule="evenodd" d="M393.263 457.071C394.889 454.534 397.694 453 400.707 453V453C407.679 453 411.908 460.692 408.173 466.579L376.753 516.102C372.951 522.094 377.256 529.924 384.353 529.924L392.35 529.924C397.321 529.924 401.35 525.894 401.35 520.924V513.879C401.35 508.908 405.38 504.879 410.35 504.879H411.274C416.245 504.879 420.274 508.908 420.274 513.879V520.924C420.274 525.894 424.304 529.924 429.274 529.924L429.7 529.924C434.671 529.924 438.7 533.953 438.7 538.924V541.198C438.7 546.169 434.671 550.198 429.7 550.198H429.274C424.304 550.198 420.274 554.227 420.274 559.198V569.225C420.274 574.195 416.245 578.225 411.274 578.225H410.35C405.38 578.225 401.35 574.195 401.35 569.225V559.198C401.35 554.227 397.321 550.198 392.35 550.198H353.08C348.109 550.198 344.08 546.169 344.08 541.198V535.228C344.08 534.173 344.394 533.142 344.984 532.268L346.561 529.926C346.562 529.925 346.564 529.924 346.566 529.924V529.924C346.569 529.924 346.571 529.922 346.572 529.921L393.263 457.071Z" fill="url(#paint57_linear)"/>
<path fill-rule="evenodd" clip-rule="evenodd" d="M617.365 457.667C618.99 455.131 621.796 453.597 624.809 453.597V453.597C631.78 453.597 636.01 461.289 632.275 467.175L600.855 516.699C597.053 522.691 601.358 530.52 608.454 530.52L616.452 530.52C621.422 530.52 625.452 526.491 625.452 521.52V514.477C625.452 509.506 629.481 505.477 634.452 505.477H635.376C640.346 505.477 644.376 509.506 644.376 514.477V521.52C644.376 526.491 648.405 530.52 653.376 530.52L653.802 530.52C658.772 530.52 662.802 534.55 662.802 539.52V541.795C662.802 546.765 658.772 550.795 653.802 550.795H653.376C648.405 550.795 644.376 554.824 644.376 559.795V569.822C644.376 574.793 640.346 578.822 635.376 578.822H634.452C629.481 578.822 625.452 574.793 625.452 569.822V559.795C625.452 554.824 621.422 550.795 616.452 550.795H577.181C572.211 550.795 568.181 546.765 568.181 541.795V535.823C568.181 534.769 568.496 533.74 569.085 532.865L570.663 530.523C570.664 530.521 570.666 530.52 570.668 530.52V530.52C570.67 530.52 570.672 530.519 570.673 530.517L617.365 457.667Z" fill="url(#paint58_linear)"/>
<path fill-rule="evenodd" clip-rule="evenodd" d="M545.771 516.208C545.771 563.376 526.819 578.82 503.441 578.82C480.062 578.82 461.111 562.958 461.111 516.208C461.111 469.457 480.062 453.596 503.441 453.596C526.819 453.596 545.771 469.04 545.771 516.208ZM526.747 516.209C526.747 548.965 516.312 559.69 503.441 559.69C499.515 559.69 495.816 558.665 492.57 556.319C489.272 553.935 489.607 549.216 492.215 546.092L519.286 513.677C521.87 510.584 526.747 512.179 526.747 516.209V516.209ZM515.92 487.349C518.391 484.39 518.856 480.003 516.003 477.41C512.378 474.114 508.067 472.729 503.441 472.729C490.57 472.729 480.136 483.744 480.136 516.209V516.209C480.136 521.174 486.092 523.065 489.274 519.254L515.92 487.349Z" fill="url(#paint59_linear)"/>
<path fill-rule="evenodd" clip-rule="evenodd" d="M56.8776 593.071C58.5033 590.534 61.3088 589 64.3217 589V589C71.2933 589 75.5226 596.692 71.7877 602.579L40.3675 652.102C36.5659 658.094 40.8708 665.924 47.9671 665.924L55.9648 665.924C60.9353 665.924 64.9648 661.894 64.9648 656.924V649.879C64.9648 644.908 68.9942 640.879 73.9648 640.879H74.8889C79.8594 640.879 83.8889 644.908 83.8889 649.879V656.924C83.8889 661.894 87.9183 665.924 92.8889 665.924L93.3149 665.924C98.2854 665.924 102.315 669.953 102.315 674.924V677.198C102.315 682.169 98.2854 686.198 93.3149 686.198H92.8889C87.9183 686.198 83.8889 690.227 83.8889 695.198V705.225C83.8889 710.195 79.8594 714.225 74.8889 714.225H73.9648C68.9942 714.225 64.9648 710.195 64.9648 705.225V695.198C64.9648 690.227 60.9353 686.198 55.9648 686.198H16.6943C11.7238 686.198 7.69434 682.169 7.69434 677.198V671.228C7.69434 670.173 8.00916 669.142 8.59848 668.268L10.176 665.926C10.1771 665.925 10.1791 665.924 10.1811 665.924V665.924C10.1832 665.924 10.1852 665.922 10.1864 665.921L56.8776 593.071Z" fill="url(#paint60_linear)"/>
<path fill-rule="evenodd" clip-rule="evenodd" d="M280.979 593.667C282.605 591.131 285.41 589.597 288.423 589.597V589.597C295.395 589.597 299.624 597.289 295.889 603.175L264.469 652.699C260.667 658.691 264.972 666.52 272.069 666.52L280.066 666.52C285.037 666.52 289.066 662.491 289.066 657.52V650.477C289.066 645.506 293.096 641.477 298.066 641.477H298.99C303.961 641.477 307.99 645.506 307.99 650.477V657.52C307.99 662.491 312.02 666.52 316.99 666.52L317.416 666.52C322.387 666.52 326.416 670.55 326.416 675.52V677.795C326.416 682.765 322.387 686.795 317.416 686.795H316.99C312.02 686.795 307.99 690.824 307.99 695.795V705.822C307.99 710.793 303.961 714.822 298.99 714.822H298.066C293.096 714.822 289.066 710.793 289.066 705.822V695.795C289.066 690.824 285.037 686.795 280.066 686.795H240.796C235.825 686.795 231.796 682.765 231.796 677.795V671.823C231.796 670.769 232.11 669.74 232.699 668.865L234.277 666.523C234.278 666.521 234.28 666.52 234.283 666.52V666.52C234.285 666.52 234.287 666.519 234.288 666.517L280.979 593.667Z" fill="url(#paint61_linear)"/>
<path fill-rule="evenodd" clip-rule="evenodd" d="M209.386 652.208C209.386 699.376 190.434 714.82 167.055 714.82C143.677 714.82 124.725 698.958 124.725 652.208C124.725 605.457 143.677 589.596 167.055 589.596C190.434 589.596 209.386 605.04 209.386 652.208ZM190.361 652.209C190.361 684.965 179.927 695.69 167.056 695.69C163.13 695.69 159.43 694.665 156.185 692.319C152.886 689.935 153.221 685.216 155.83 682.092L182.901 649.677C185.484 646.584 190.361 648.179 190.361 652.209V652.209ZM179.534 623.349C182.005 620.39 182.47 616.003 179.618 613.41C175.993 610.114 171.682 608.729 167.056 608.729C154.184 608.729 143.75 619.744 143.75 652.209V652.209C143.75 657.174 149.706 659.065 152.889 655.254L179.534 623.349Z" fill="url(#paint62_linear)"/>
<defs>
<linearGradient id="paint0_linear" x1="960" y1="0" x2="960" y2="1080" gradientUnits="userSpaceOnUse">
<stop stop-color="#3FFEEC"/>
<stop offset="1" stop-color="#2AA9FE"/>
</linearGradient>
<linearGradient id="paint1_linear" x1="1302.52" y1="696.07" x2="1471.88" y2="696.07" gradientUnits="userSpaceOnUse">
<stop stop-color="#36DCF3"/>
<stop offset="1" stop-color="#2AACFD"/>
</linearGradient>
<linearGradient id="paint2_linear" x1="1703.64" y1="697.138" x2="1873" y2="697.138" gradientUnits="userSpaceOnUse">
<stop stop-color="#36DCF3"/>
<stop offset="1" stop-color="#2AACFD"/>
</linearGradient>
<linearGradient id="paint3_linear" x1="1511.99" y1="697.138" x2="1663.53" y2="697.138" gradientUnits="userSpaceOnUse">
<stop stop-color="#36DCF3"/>
<stop offset="1" stop-color="#2AACFD"/>
</linearGradient>
<linearGradient id="paint4_linear" x1="1102.39" y1="440" x2="1251.18" y2="440" gradientUnits="userSpaceOnUse">
<stop stop-color="#36DCF3"/>
<stop offset="1" stop-color="#2AACFD"/>
</linearGradient>
<linearGradient id="paint5_linear" x1="1454.79" y1="441" x2="1603.59" y2="441" gradientUnits="userSpaceOnUse">
<stop stop-color="#36DCF3"/>
<stop offset="1" stop-color="#2AACFD"/>
</linearGradient>
<linearGradient id="paint6_linear" x1="1286.42" y1="441" x2="1419.55" y2="441" gradientUnits="userSpaceOnUse">
<stop stop-color="#36DCF3"/>
<stop offset="1" stop-color="#2AACFD"/>
</linearGradient>
<linearGradient id="paint7_linear" x1="247.203" y1="808" x2="405.881" y2="808" gradientUnits="userSpaceOnUse">
<stop stop-color="#36DCF3"/>
<stop offset="1" stop-color="#2AACFD"/>
</linearGradient>
<linearGradient id="paint8_linear" x1="426" y1="955" x2="584.678" y2="955" gradientUnits="userSpaceOnUse">
<stop stop-color="#36DCF3"/>
<stop offset="1" stop-color="#2AACFD"/>
</linearGradient>
<linearGradient id="paint9_linear" x1="443.462" y1="809" x2="585.437" y2="809" gradientUnits="userSpaceOnUse">
<stop stop-color="#36DCF3"/>
<stop offset="1" stop-color="#2AACFD"/>
</linearGradient>
<linearGradient id="paint10_linear" x1="835.146" y1="116.038" x2="993.803" y2="116.038" gradientUnits="userSpaceOnUse">
<stop stop-color="#36DCF3"/>
<stop offset="1" stop-color="#2AACFD"/>
</linearGradient>
<linearGradient id="paint11_linear" x1="1210.91" y1="116.962" x2="1369.57" y2="116.962" gradientUnits="userSpaceOnUse">
<stop stop-color="#36DCF3"/>
<stop offset="1" stop-color="#2AACFD"/>
</linearGradient>
<linearGradient id="paint12_linear" x1="1031.38" y1="116.962" x2="1173.34" y2="116.962" gradientUnits="userSpaceOnUse">
<stop stop-color="#36DCF3"/>
<stop offset="1" stop-color="#2AACFD"/>
</linearGradient>
<linearGradient id="paint13_linear" x1="398.365" y1="139.619" x2="482.417" y2="139.619" gradientUnits="userSpaceOnUse">
<stop stop-color="#36DCF3"/>
<stop offset="1" stop-color="#2AACFD"/>
</linearGradient>
<linearGradient id="paint14_linear" x1="597.436" y1="140.149" x2="681.488" y2="140.149" gradientUnits="userSpaceOnUse">
<stop stop-color="#36DCF3"/>
<stop offset="1" stop-color="#2AACFD"/>
</linearGradient>
<linearGradient id="paint15_linear" x1="502.324" y1="140.149" x2="577.528" y2="140.149" gradientUnits="userSpaceOnUse">
<stop stop-color="#36DCF3"/>
<stop offset="1" stop-color="#2AACFD"/>
</linearGradient>
<linearGradient id="paint16_linear" x1="104.421" y1="308.619" x2="188.474" y2="308.619" gradientUnits="userSpaceOnUse">
<stop stop-color="#36DCF3"/>
<stop offset="1" stop-color="#2AACFD"/>
</linearGradient>
<linearGradient id="paint17_linear" x1="303.492" y1="309.149" x2="387.545" y2="309.149" gradientUnits="userSpaceOnUse">
<stop stop-color="#36DCF3"/>
<stop offset="1" stop-color="#2AACFD"/>
</linearGradient>
<linearGradient id="paint18_linear" x1="208.381" y1="309.149" x2="283.585" y2="309.149" gradientUnits="userSpaceOnUse">
<stop stop-color="#36DCF3"/>
<stop offset="1" stop-color="#2AACFD"/>
</linearGradient>
<linearGradient id="paint19_linear" x1="1369.64" y1="290.911" x2="1450.22" y2="290.911" gradientUnits="userSpaceOnUse">
<stop stop-color="#36DCF3"/>
<stop offset="1" stop-color="#2AACFD"/>
</linearGradient>
<linearGradient id="paint20_linear" x1="1560.49" y1="291.491" x2="1641.07" y2="291.491" gradientUnits="userSpaceOnUse">
<stop stop-color="#36DCF3"/>
<stop offset="1" stop-color="#2AACFD"/>
</linearGradient>
<linearGradient id="paint21_linear" x1="1469.3" y1="291.491" x2="1541.4" y2="291.491" gradientUnits="userSpaceOnUse">
<stop stop-color="#36DCF3"/>
<stop offset="1" stop-color="#2AACFD"/>
</linearGradient>
<linearGradient id="paint22_linear" x1="706.769" y1="313.911" x2="787.349" y2="313.911" gradientUnits="userSpaceOnUse">
<stop stop-color="#36DCF3"/>
<stop offset="1" stop-color="#2AACFD"/>
</linearGradient>
<linearGradient id="paint23_linear" x1="897.616" y1="314.343" x2="978" y2="314.343" gradientUnits="userSpaceOnUse">
<stop stop-color="#36DCF3"/>
<stop offset="1" stop-color="#2AACFD"/>
</linearGradient>
<linearGradient id="paint24_linear" x1="806.433" y1="314.491" x2="878.531" y2="314.491" gradientUnits="userSpaceOnUse">
<stop stop-color="#36DCF3"/>
<stop offset="1" stop-color="#2AACFD"/>
</linearGradient>
<linearGradient id="paint25_linear" x1="1560.83" y1="99.9107" x2="1641.41" y2="99.9107" gradientUnits="userSpaceOnUse">
<stop stop-color="#36DCF3"/>
<stop offset="1" stop-color="#2AACFD"/>
</linearGradient>
<linearGradient id="paint26_linear" x1="1751.67" y1="100.3" x2="1832" y2="100.3" gradientUnits="userSpaceOnUse">
<stop stop-color="#36DCF3"/>
<stop offset="1" stop-color="#2AACFD"/>
</linearGradient>
<linearGradient id="paint27_linear" x1="1660.49" y1="100.491" x2="1732.59" y2="100.491" gradientUnits="userSpaceOnUse">
<stop stop-color="#36DCF3"/>
<stop offset="1" stop-color="#2AACFD"/>
</linearGradient>
<linearGradient id="paint28_linear" x1="455.154" y1="252.389" x2="490.5" y2="252.389" gradientUnits="userSpaceOnUse">
<stop stop-color="#36DCF3"/>
<stop offset="1" stop-color="#2AACFD"/>
</linearGradient>
<linearGradient id="paint29_linear" x1="538.867" y1="252.611" x2="574.212" y2="252.611" gradientUnits="userSpaceOnUse">
<stop stop-color="#36DCF3"/>
<stop offset="1" stop-color="#2AACFD"/>
</linearGradient>
<linearGradient id="paint30_linear" x1="498.871" y1="252.611" x2="530.496" y2="252.611" gradientUnits="userSpaceOnUse">
<stop stop-color="#36DCF3"/>
<stop offset="1" stop-color="#2AACFD"/>
</linearGradient>
<linearGradient id="paint31_linear" x1="972.11" y1="856.389" x2="1007.46" y2="856.389" gradientUnits="userSpaceOnUse">
<stop stop-color="#36DCF3"/>
<stop offset="1" stop-color="#2AACFD"/>
</linearGradient>
<linearGradient id="paint32_linear" x1="1055.82" y1="856.611" x2="1091.17" y2="856.611" gradientUnits="userSpaceOnUse">
<stop stop-color="#36DCF3"/>
<stop offset="1" stop-color="#2AACFD"/>
</linearGradient>
<linearGradient id="paint33_linear" x1="1015.83" y1="856.611" x2="1047.45" y2="856.611" gradientUnits="userSpaceOnUse">
<stop stop-color="#36DCF3"/>
<stop offset="1" stop-color="#2AACFD"/>
</linearGradient>
<linearGradient id="paint34_linear" x1="855.189" y1="464.389" x2="890.534" y2="464.389" gradientUnits="userSpaceOnUse">
<stop stop-color="#36DCF3"/>
<stop offset="1" stop-color="#2AACFD"/>
</linearGradient>
<linearGradient id="paint35_linear" x1="938.901" y1="467.27" x2="978.264" y2="467.27" gradientUnits="userSpaceOnUse">
<stop stop-color="#36DCF3"/>
<stop offset="1" stop-color="#2AACFD"/>
</linearGradient>
<linearGradient id="paint36_linear" x1="898.906" y1="464.611" x2="930.53" y2="464.611" gradientUnits="userSpaceOnUse">
<stop stop-color="#36DCF3"/>
<stop offset="1" stop-color="#2AACFD"/>
</linearGradient>
<linearGradient id="paint37_linear" x1="1788.36" y1="262.389" x2="1823.7" y2="262.389" gradientUnits="userSpaceOnUse">
<stop stop-color="#36DCF3"/>
<stop offset="1" stop-color="#2AACFD"/>
</linearGradient>
<linearGradient id="paint38_linear" x1="1872.07" y1="265.27" x2="1911.43" y2="265.27" gradientUnits="userSpaceOnUse">
<stop stop-color="#36DCF3"/>
<stop offset="1" stop-color="#2AACFD"/>
</linearGradient>
<linearGradient id="paint39_linear" x1="1832.07" y1="262.612" x2="1863.7" y2="262.612" gradientUnits="userSpaceOnUse">
<stop stop-color="#36DCF3"/>
<stop offset="1" stop-color="#2AACFD"/>
</linearGradient>
<linearGradient id="paint40_linear" x1="1418.91" y1="650" x2="1452.16" y2="650" gradientUnits="userSpaceOnUse">
<stop stop-color="#36DCF3"/>
<stop offset="1" stop-color="#2AACFD"/>
</linearGradient>
<linearGradient id="paint41_linear" x1="1502.62" y1="651.611" x2="1537.97" y2="651.611" gradientUnits="userSpaceOnUse">
<stop stop-color="#36DCF3"/>
<stop offset="1" stop-color="#2AACFD"/>
</linearGradient>
<linearGradient id="paint42_linear" x1="1462.63" y1="651.611" x2="1494.25" y2="651.611" gradientUnits="userSpaceOnUse">
<stop stop-color="#36DCF3"/>
<stop offset="1" stop-color="#2AACFD"/>
</linearGradient>
<linearGradient id="paint43_linear" x1="171.205" y1="123.389" x2="206.55" y2="123.389" gradientUnits="userSpaceOnUse">
<stop stop-color="#36DCF3"/>
<stop offset="1" stop-color="#2AACFD"/>
</linearGradient>
<linearGradient id="paint44_linear" x1="254.917" y1="123.612" x2="290.263" y2="123.612" gradientUnits="userSpaceOnUse">
<stop stop-color="#36DCF3"/>
<stop offset="1" stop-color="#2AACFD"/>
</linearGradient>
<linearGradient id="paint45_linear" x1="214.921" y1="123.611" x2="246.546" y2="123.611" gradientUnits="userSpaceOnUse">
<stop stop-color="#36DCF3"/>
<stop offset="1" stop-color="#2AACFD"/>
</linearGradient>
<linearGradient id="paint46_linear" x1="113.215" y1="494.389" x2="148.56" y2="494.389" gradientUnits="userSpaceOnUse">
<stop stop-color="#36DCF3"/>
<stop offset="1" stop-color="#2AACFD"/>
</linearGradient>
<linearGradient id="paint47_linear" x1="196.927" y1="494.612" x2="232.273" y2="494.612" gradientUnits="userSpaceOnUse">
<stop stop-color="#36DCF3"/>
<stop offset="1" stop-color="#2AACFD"/>
</linearGradient>
<linearGradient id="paint48_linear" x1="156.931" y1="494.611" x2="188.556" y2="494.611" gradientUnits="userSpaceOnUse">
<stop stop-color="#36DCF3"/>
<stop offset="1" stop-color="#2AACFD"/>
</linearGradient>
<linearGradient id="paint49_linear" x1="693.171" y1="621.502" x2="851.097" y2="621.502" gradientUnits="userSpaceOnUse">
<stop stop-color="#36DCF3"/>
<stop offset="1" stop-color="#2AACFD"/>
</linearGradient>
<linearGradient id="paint50_linear" x1="1067.21" y1="622.497" x2="1225.13" y2="622.497" gradientUnits="userSpaceOnUse">
<stop stop-color="#36DCF3"/>
<stop offset="1" stop-color="#2AACFD"/>
</linearGradient>
<linearGradient id="paint51_linear" x1="888.5" y1="622.497" x2="1029.8" y2="622.497" gradientUnits="userSpaceOnUse">
<stop stop-color="#36DCF3"/>
<stop offset="1" stop-color="#2AACFD"/>
</linearGradient>
<linearGradient id="paint52_linear" x1="771.19" y1="964.51" x2="915" y2="964.51" gradientUnits="userSpaceOnUse">
<stop stop-color="#36DCF3"/>
<stop offset="1" stop-color="#2AACFD"/>
</linearGradient>
<linearGradient id="paint53_linear" x1="608.457" y1="964.51" x2="737.129" y2="964.51" gradientUnits="userSpaceOnUse">
<stop stop-color="#36DCF3"/>
<stop offset="1" stop-color="#2AACFD"/>
</linearGradient>
<linearGradient id="paint54_linear" x1="1069.47" y1="938.5" x2="1228.91" y2="938.5" gradientUnits="userSpaceOnUse">
<stop stop-color="#36DCF3"/>
<stop offset="1" stop-color="#2AACFD"/>
</linearGradient>
<linearGradient id="paint55_linear" x1="1445.29" y1="939" x2="1603.97" y2="939" gradientUnits="userSpaceOnUse">
<stop stop-color="#36DCF3"/>
<stop offset="1" stop-color="#2AACFD"/>
</linearGradient>
<linearGradient id="paint56_linear" x1="1265.73" y1="939" x2="1407.71" y2="939" gradientUnits="userSpaceOnUse">
<stop stop-color="#36DCF3"/>
<stop offset="1" stop-color="#2AACFD"/>
</linearGradient>
<linearGradient id="paint57_linear" x1="344.08" y1="515.612" x2="438.7" y2="515.612" gradientUnits="userSpaceOnUse">
<stop stop-color="#36DCF3"/>
<stop offset="1" stop-color="#2AACFD"/>
</linearGradient>
<linearGradient id="paint58_linear" x1="568.181" y1="516.209" x2="662.802" y2="516.209" gradientUnits="userSpaceOnUse">
<stop stop-color="#36DCF3"/>
<stop offset="1" stop-color="#2AACFD"/>
</linearGradient>
<linearGradient id="paint59_linear" x1="461.111" y1="516.208" x2="545.771" y2="516.208" gradientUnits="userSpaceOnUse">
<stop stop-color="#36DCF3"/>
<stop offset="1" stop-color="#2AACFD"/>
</linearGradient>
<linearGradient id="paint60_linear" x1="7.69434" y1="651.612" x2="102.315" y2="651.612" gradientUnits="userSpaceOnUse">
<stop stop-color="#36DCF3"/>
<stop offset="1" stop-color="#2AACFD"/>
</linearGradient>
<linearGradient id="paint61_linear" x1="231.796" y1="652.209" x2="326.416" y2="652.209" gradientUnits="userSpaceOnUse">
<stop stop-color="#36DCF3"/>
<stop offset="1" stop-color="#2AACFD"/>
</linearGradient>
<linearGradient id="paint62_linear" x1="124.725" y1="652.208" x2="209.386" y2="652.208" gradientUnits="userSpaceOnUse">
<stop stop-color="#36DCF3"/>
<stop offset="1" stop-color="#2AACFD"/>
</linearGradient>
</defs>
</svg>
