<svg width="290" height="318" viewBox="0 0 290 318" fill="none" xmlns="http://www.w3.org/2000/svg">
<ellipse cx="151.741" cy="142.184" rx="137.946" ry="141.399" fill="#09115B"/>
<ellipse cx="137.946" cy="142.184" rx="137.946" ry="141.399" fill="#6799FC"/>
<rect x="32.4174" y="46.0333" width="224.853" height="161.194" rx="12" fill="#C4C4C4"/>
<rect x="122.772" y="207.228" width="44.1429" height="40.2986" fill="#AAAAAA"/>
<rect x="40.4515" y="53.1033" width="208.299" height="137.157" fill="white"/>
<ellipse cx="222.094" cy="198.39" rx="2.75893" ry="2.47447" fill="black" fill-opacity="0.5"/>
<ellipse cx="231.75" cy="198.39" rx="2.75893" ry="2.47447" fill="black" fill-opacity="0.5"/>
<ellipse cx="241.406" cy="198.39" rx="2.75893" ry="2.47447" fill="black" fill-opacity="0.5"/>
<rect x="113.806" y="195.916" width="62.0759" height="4.94895" rx="2.47447" fill="white"/>
<path d="M95.8728 146.423L144.644 117.841L193.416 146.423L144.644 174.401L95.8728 146.423Z" fill="#6799FC"/>
<path d="M96.5625 121.678L145.334 93.0967L194.105 121.678L145.334 149.656L96.5625 121.678Z" fill="#346FD3"/>
<path d="M96.2683 96.7322L145.04 68.151L193.811 96.7322L145.04 124.71L96.2683 96.7322Z" fill="#2036FF"/>
<rect x="40.0045" y="53.1033" width="24.1406" height="137.157" fill="#5C5B5B"/>
<rect x="212.438" y="53.1033" width="37.2455" height="137.157" fill="#5C5B5B"/>
<rect x="44.1428" y="67.2431" width="16.5536" height="4.24196" fill="white" fill-opacity="0.8"/>
<rect x="44.1428" y="129.458" width="16.5536" height="4.24196" fill="white" fill-opacity="0.8"/>
<rect x="44.1428" y="116.733" width="16.5536" height="4.24196" fill="white" fill-opacity="0.8"/>
<rect x="44.1428" y="104.714" width="16.5536" height="4.24196" fill="white" fill-opacity="0.8"/>
<rect x="44.1428" y="79.969" width="16.5536" height="4.24196" fill="white" fill-opacity="0.8"/>
<rect x="44.1428" y="91.9879" width="16.5536" height="4.24196" fill="white" fill-opacity="0.8"/>
<rect x="222.094" y="175.413" width="16.5536" height="4.24196" fill="white" fill-opacity="0.8"/>
<rect x="222.094" y="163.394" width="16.5536" height="4.24196" fill="white" fill-opacity="0.8"/>
<rect x="222.094" y="138.649" width="16.5536" height="4.24196" fill="white" fill-opacity="0.8"/>
<rect x="222.094" y="150.668" width="16.5536" height="4.24196" fill="white" fill-opacity="0.8"/>
<rect x="44.1428" y="146.426" width="16.5536" height="33.2287" fill="white" fill-opacity="0.8"/>
<rect x="222.094" y="67.2431" width="16.5536" height="62.9224" fill="white" fill-opacity="0.8"/>
<rect x="106.908" y="247.526" width="76.5603" height="9.1909" fill="#8A8787"/>
<rect x="42.7634" y="263.787" width="205.54" height="53.7314" fill="#8A8787"/>
<rect x="44.1429" y="263.787" width="202.781" height="49.4895" fill="#C4C4C4"/>
<rect x="49.6608" y="271.564" width="6.89732" height="7.06993" fill="#404040"/>
<rect x="64.1451" y="271.564" width="6.89732" height="7.06993" fill="#404040"/>
<rect x="92.4242" y="271.564" width="6.89732" height="7.06993" fill="#404040"/>
<rect x="77.9398" y="271.564" width="6.89732" height="7.06993" fill="#404040"/>
<rect x="106.219" y="271.564" width="6.89732" height="7.06993" fill="#404040"/>
<rect x="120.703" y="271.564" width="6.89732" height="7.06993" fill="#404040"/>
<rect x="148.982" y="271.564" width="6.89732" height="7.06993" fill="#404040"/>
<rect x="134.498" y="271.564" width="6.89732" height="7.06993" fill="#404040"/>
<rect x="49.6608" y="280.048" width="6.89732" height="7.06993" fill="#404040"/>
<rect x="64.1451" y="280.048" width="6.89732" height="7.06993" fill="#404040"/>
<rect x="92.4242" y="280.048" width="6.89732" height="7.06993" fill="#404040"/>
<rect x="77.9398" y="280.048" width="6.89732" height="7.06993" fill="#404040"/>
<rect x="106.219" y="280.048" width="6.89732" height="7.06993" fill="#404040"/>
<rect x="120.703" y="280.048" width="6.89732" height="7.06993" fill="#404040"/>
<rect x="148.982" y="280.048" width="6.89732" height="7.06993" fill="#404040"/>
<rect x="134.498" y="280.048" width="6.89732" height="7.06993" fill="#404040"/>
<rect x="49.6608" y="288.532" width="6.89732" height="7.06993" fill="#404040"/>
<rect x="64.1451" y="288.532" width="6.89732" height="7.06993" fill="#404040"/>
<rect x="92.4242" y="288.532" width="6.89732" height="7.06993" fill="#404040"/>
<rect x="77.9398" y="288.532" width="6.89732" height="7.06993" fill="#404040"/>
<rect x="106.219" y="288.532" width="6.89732" height="7.06993" fill="#404040"/>
<rect x="120.703" y="288.532" width="6.89732" height="7.06993" fill="#404040"/>
<rect x="148.982" y="288.532" width="6.89732" height="7.06993" fill="#404040"/>
<rect x="134.498" y="288.532" width="6.89732" height="7.06993" fill="#404040"/>
<rect x="177.261" y="271.564" width="6.89732" height="7.06993" fill="#404040"/>
<rect x="162.777" y="271.564" width="6.89732" height="7.06993" fill="#404040"/>
<rect x="191.056" y="271.564" width="6.89732" height="7.06993" fill="#404040"/>
<rect x="205.54" y="271.564" width="6.89732" height="7.06993" fill="#404040"/>
<rect x="233.819" y="271.564" width="6.89732" height="7.06993" fill="#404040"/>
<rect x="219.335" y="271.564" width="6.89732" height="7.06993" fill="#404040"/>
<rect x="177.261" y="280.048" width="6.89732" height="7.06993" fill="#404040"/>
<rect x="162.777" y="280.048" width="6.89732" height="7.06993" fill="#404040"/>
<rect x="191.056" y="280.048" width="6.89732" height="7.06993" fill="#404040"/>
<rect x="205.54" y="280.048" width="6.89732" height="7.06993" fill="#404040"/>
<rect x="233.819" y="280.048" width="6.89732" height="7.06993" fill="#404040"/>
<rect x="219.335" y="280.048" width="6.89732" height="7.06993" fill="#404040"/>
<rect x="177.261" y="288.532" width="6.89732" height="7.06993" fill="#404040"/>
<rect x="162.777" y="288.532" width="6.89732" height="7.06993" fill="#404040"/>
<rect x="191.056" y="288.532" width="6.89732" height="7.06993" fill="#404040"/>
<rect x="205.54" y="288.532" width="6.89732" height="7.06993" fill="#404040"/>
<rect x="233.819" y="288.532" width="6.89732" height="7.06993" fill="#404040"/>
<rect x="219.335" y="288.532" width="6.89732" height="7.06993" fill="#404040"/>
<rect x="111.737" y="301.258" width="67.5938" height="7.77692" fill="#404040"/>
</svg>
