<svg width="1920" height="988" viewBox="0 0 1920 988" fill="none" xmlns="http://www.w3.org/2000/svg">
<path fill-rule="evenodd" clip-rule="evenodd" d="M0.5 -1H957.502C957.502 98.677 1048.75 254.671 1447.75 254.671C1846.74 254.671 1920.5 419.471 1920.5 473.462V984.768C1867.92 958.672 1808.68 944 1746 944C1686.79 944 1630.63 957.096 1580.27 980.549C1560.81 989.614 1538.19 989.614 1518.73 980.549C1468.37 957.096 1412.21 944 1353 944C1293.79 944 1237.63 957.096 1187.27 980.549C1167.81 989.614 1145.19 989.614 1125.73 980.549C1075.37 957.096 1019.21 944 960 944C900.786 944 844.631 957.096 794.273 980.549C774.808 989.614 752.192 989.614 732.727 980.549C682.369 957.096 626.214 944 567 944C507.786 944 451.631 957.096 401.273 980.549C381.808 989.614 359.192 989.614 339.727 980.549C289.369 957.096 233.214 944 174 944C111.721 944 52.8259 958.487 0.5 984.274V-1Z" fill="url(#paint0_linear)"/>
<defs>
<linearGradient id="paint0_linear" x1="906.528" y1="388.239" x2="176.047" y2="1177.66" gradientUnits="userSpaceOnUse">
<stop stop-color="#2AA9FF"/>
<stop offset="1" stop-color="#3FFFEC"/>
</linearGradient>
</defs>
</svg>
