<svg width="1920" height="903" viewBox="0 0 1920 903" fill="none" xmlns="http://www.w3.org/2000/svg">
<path fill-rule="evenodd" clip-rule="evenodd" d="M0.5 -1H957.502C957.502 89.7669 1048.75 231.817 1447.75 231.817C1846.74 231.817 1920.5 381.885 1920.5 431.05V900.295C1867.92 874.199 1808.68 859.527 1746 859.527C1686.79 859.527 1630.63 872.623 1580.27 896.076C1560.81 905.141 1538.19 905.141 1518.73 896.076C1468.37 872.623 1412.21 859.527 1353 859.527C1293.79 859.527 1237.63 872.623 1187.27 896.076C1167.81 905.141 1145.19 905.141 1125.73 896.076C1075.37 872.623 1019.21 859.527 960 859.527C900.786 859.527 844.631 872.623 794.273 896.076C774.808 905.141 752.192 905.141 732.727 896.076C682.369 872.623 626.214 859.527 567 859.527C507.786 859.527 451.631 872.623 401.273 896.076C381.808 905.141 359.192 905.141 339.727 896.076C289.369 872.623 233.214 859.527 174 859.527C111.721 859.527 52.8259 874.013 0.5 899.801V-1Z" fill="url(#paint0_linear)"/>
<defs>
<linearGradient id="paint0_linear" x1="906.528" y1="354.971" x2="245.698" y2="1135.87" gradientUnits="userSpaceOnUse">
<stop stop-color="#2AA9FF"/>
<stop offset="1" stop-color="#3FFFEC"/>
</linearGradient>
</defs>
</svg>
