<svg width="1920" height="749" viewBox="0 0 1920 749" fill="none" xmlns="http://www.w3.org/2000/svg">
<path fill-rule="evenodd" clip-rule="evenodd" d="M0.5 -1H957.502C957.502 74.4374 1048.75 192.497 1447.75 192.497C1846.74 192.497 1920.5 317.22 1920.5 358.082V745.048C1867.92 725.298 1808.68 714.194 1746 714.194C1684.26 714.194 1625.84 724.969 1573.86 744.17C1558.15 749.971 1540.85 749.971 1525.14 744.17C1473.16 724.969 1414.74 714.194 1353 714.194C1291.26 714.194 1232.84 724.969 1180.86 744.17C1165.15 749.971 1147.85 749.971 1132.14 744.17C1080.16 724.969 1021.74 714.194 960 714.194C898.259 714.194 839.844 724.969 787.858 744.17C772.151 749.971 754.849 749.971 739.142 744.17C687.156 724.969 628.741 714.194 567 714.194C505.259 714.194 446.844 724.969 394.858 744.17C379.151 749.971 361.849 749.971 346.142 744.17C294.156 724.969 235.741 714.194 174 714.194C111.721 714.194 52.8259 725.157 0.5 744.674V-1Z" fill="url(#paint0_linear)"/>
<defs>
<linearGradient id="paint0_linear" x1="906.528" y1="294.182" x2="384.015" y2="1038.79" gradientUnits="userSpaceOnUse">
<stop stop-color="#2AA9FF"/>
<stop offset="1" stop-color="#3FFFEC"/>
</linearGradient>
</defs>
</svg>
