<svg width="1920" height="301" viewBox="0 0 1920 301" fill="none" xmlns="http://www.w3.org/2000/svg">
<path fill-rule="evenodd" clip-rule="evenodd" d="M0 43.0167C78.0605 35.6325 151.839 21.6136 219.225 2.08816C219.631 1.97045 220.038 1.85685 220.446 1.74737C227.02 -0.0167729 233.984 -0.0166493 240.558 1.7478C240.965 1.85705 241.371 1.9704 241.776 2.08785C345.038 32.0084 463.309 48.9984 588.999 48.9984C591.16 48.9984 593.318 48.9934 595.474 48.9834C597.648 48.9936 599.823 48.9987 602.001 48.9987C727.692 48.9987 845.963 32.0086 949.224 2.08816C949.631 1.97043 950.038 1.85682 950.446 1.74733C957.019 -0.0167719 963.984 -0.0166293 970.557 1.74773C970.964 1.85701 971.37 1.97038 971.776 2.08785C1075.04 32.0084 1193.31 48.9984 1319 48.9984C1321.16 48.9984 1323.32 48.9934 1325.47 48.9834C1327.65 48.9936 1329.82 48.9987 1332 48.9987C1457.69 48.9987 1575.96 32.0086 1679.22 2.08816C1679.63 1.97039 1680.04 1.85674 1680.45 1.74721C1687.02 -0.0167633 1693.98 -0.0166798 1700.56 1.74765C1700.96 1.85695 1701.37 1.97035 1701.78 2.08785C1768.87 21.5299 1842.31 35.5123 1920 42.9214V119.741V300.46H0L0 43.0167Z" fill="url(#paint0_linear)"/>
<defs>
<linearGradient id="paint0_linear" x1="960" y1="65.4824" x2="960" y2="411.669" gradientUnits="userSpaceOnUse">
<stop stop-color="#2AAAFE"/>
<stop offset="1" stop-color="#3FFFEC"/>
</linearGradient>
</defs>
</svg>
